<svg xmlns="http://www.w3.org/2000/svg" version="1.1" xmlns:xlink="http://www.w3.org/1999/xlink" xmlns:svgjs="http://svgjs.com/svgjs" width="1440" height="484" preserveAspectRatio="none" viewBox="0 0 1440 484"><g mask="url(&quot;#SvgjsMask1033&quot;)" fill="none"><rect width="1440" height="484" x="0" y="0" fill="rgba(215, 215, 215, 0.46)"></rect><path d="M1054.629,396.059C1086.508,397.733,1121.854,389.246,1136.844,361.061C1151.291,333.898,1133.959,303.308,1117.926,277.05C1102.835,252.334,1083.528,228.281,1054.629,226.414C1022.747,224.354,990.573,239.736,975.38,267.84C960.772,294.863,969.968,327.018,986.119,353.149C1001.303,377.716,1025.788,394.545,1054.629,396.059" fill="rgba(8, 30, 147, 0.65)" class="triangle-float1"></path><path d="M224.108,67.115C238.506,67.661,253.675,63.323,261.052,50.947C268.572,38.332,265.986,22.386,258.19,9.94C250.882,-1.726,237.873,-8.199,224.108,-8.033C210.641,-7.871,198.13,-0.933,191.419,10.744C184.729,22.382,184.985,36.704,191.719,48.317C198.431,59.891,210.739,66.608,224.108,67.115" fill="rgba(8, 30, 147, 0.65)" class="triangle-float2"></path><path d="M1370.311,644.786C1422.211,648.041,1477.845,635.184,1505.663,591.248C1535.107,544.743,1532.995,482.528,1501.721,437.234C1473.716,396.674,1419.545,392.901,1370.311,395.218C1326.152,397.297,1281.519,410.801,1258.713,448.672C1235.252,487.631,1238.99,536.41,1261.482,575.936C1284.237,615.924,1324.392,641.906,1370.311,644.786" fill="rgba(8, 30, 147, 0.65)" class="triangle-float3"></path><path d="M557.134,389.853C600.232,390.058,633.505,355.682,653.768,317.645C672.693,282.12,675.474,240.005,655.611,204.996C635.491,169.534,597.906,147.137,557.134,147.323C516.673,147.508,480,170.602,460.201,205.888C440.821,240.428,443.616,281.693,462.079,316.732C482.052,354.637,514.289,389.649,557.134,389.853" fill="rgba(8, 30, 147, 0.65)" class="triangle-float2"></path><path d="M23.973,402.441C45.359,402.656,64.921,390.437,75.394,371.79C85.655,353.519,83.707,331.782,74.12,313.149C63.501,292.509,47.133,273.38,23.973,271.844C-1.564,270.15,-27.711,282.76,-39.193,305.633C-49.856,326.875,-38.678,350.869,-25.69,370.774C-14.191,388.397,2.931,402.23,23.973,402.441" fill="rgba(8, 30, 147, 0.65)" class="triangle-float1"></path><path d="M481.698,303.301C521.127,302.97,553.789,276.554,573.895,242.635C594.476,207.915,605.408,164.571,584.339,130.144C563.917,96.774,520.817,91.44,481.698,91.984C443.819,92.511,403.932,100.788,383.887,132.933C362.845,166.678,366.977,209.719,386.777,244.207C406.666,278.851,441.752,303.637,481.698,303.301" fill="rgba(8, 30, 147, 0.65)" class="triangle-float2"></path><path d="M399.744,330.134C424.376,330.438,448.912,318.694,460.063,296.728C470.433,276.301,461.184,252.85,448.744,233.614C437.582,216.355,420.281,204.301,399.744,203.463C377.58,202.559,355.111,210.539,343.294,229.311C330.738,249.257,330.441,274.703,341.955,295.268C353.735,316.308,375.633,329.836,399.744,330.134" fill="rgba(8, 30, 147, 0.65)" class="triangle-float1"></path><path d="M656.993,344.017C704.646,345.36,756.248,335.164,780.827,294.317C805.979,252.517,793.33,200.438,768.741,158.304C744.387,116.573,705.311,82.118,656.993,82.127C608.689,82.136,568.481,115.957,545.319,158.346C523.166,198.889,520.873,248.071,544.686,287.662C567.824,326.132,612.119,342.752,656.993,344.017" fill="rgba(8, 30, 147, 0.65)" class="triangle-float2"></path><path d="M6.942,308.103C20.541,308.088,34.431,304.354,41.869,292.969C49.996,280.528,52.104,263.862,43.967,251.428C36.363,239.808,20.826,239.305,6.942,239.596C-6.245,239.873,-20.249,241.899,-27.484,252.928C-35.347,264.915,-35.712,280.886,-28.123,293.049C-20.906,304.615,-6.691,308.119,6.942,308.103" fill="rgba(8, 30, 147, 0.65)" class="triangle-float2"></path><path d="M140.203,360.765C154.897,359.717,164.097,346.801,171.748,334.213C179.851,320.882,189.94,305.299,182.122,291.799C174.312,278.314,155.745,278.616,140.203,279.744C127.04,280.699,115.056,286.282,107.646,297.204C99.047,309.879,92.787,325.713,99.769,339.345C107.221,353.894,123.897,361.928,140.203,360.765" fill="rgba(8, 30, 147, 0.65)" class="triangle-float1"></path></g><defs><mask id="SvgjsMask1033"><rect width="1440" height="484" fill="#ffffff"></rect></mask><style>
            @keyframes float1 {
                0%{transform: translate(0, 0)}
                50%{transform: translate(-10px, 0)}
                100%{transform: translate(0, 0)}
            }

            .triangle-float1 {
                animation: float1 5s infinite;
            }

            @keyframes float2 {
                0%{transform: translate(0, 0)}
                50%{transform: translate(-5px, -5px)}
                100%{transform: translate(0, 0)}
            }

            .triangle-float2 {
                animation: float2 4s infinite;
            }

            @keyframes float3 {
                0%{transform: translate(0, 0)}
                50%{transform: translate(0, -10px)}
                100%{transform: translate(0, 0)}
            }

            .triangle-float3 {
                animation: float3 6s infinite;
            }
        </style></defs></svg>