<svg xmlns="http://www.w3.org/2000/svg" version="1.1" xmlns:xlink="http://www.w3.org/1999/xlink" xmlns:svgjs="http://svgjs.com/svgjs" width="1440" height="560" preserveAspectRatio="none" viewBox="0 0 1440 560"><g mask="url(&quot;#SvgjsMask1015&quot;)" fill="none"><path d="M645.518,511.347C688.133,507.999,721.516,479.948,744.233,443.738C768.909,404.406,789.161,357.354,768.085,315.981C745.508,271.662,695.231,251.541,645.518,249.957C592.465,248.266,536.374,262.461,508.63,307.713C479.846,354.662,484.982,415.99,515.705,461.693C543.407,502.902,596.016,515.236,645.518,511.347" fill="rgba(28, 83, 142, 0.4)" class="triangle-float1"></path><path d="M1188.2631647087157 450.25093968797967L1222.7449478308956 288.0269045828662 1060.5209127257822 253.54512146068635 1026.0391296036023 415.76915656579985z" fill="rgba(28, 83, 142, 0.4)" class="triangle-float1"></path><path d="M21.007506477596728 54.683797030255384L146.15607652026503 100.36926766508047 127.93756208159294-14.657905467214434z" fill="rgba(28, 83, 142, 0.4)" class="triangle-float1"></path><path d="M1274.5025088287077 544.5836165872137L1381.8088071912919 503.3925879130378 1340.617778517116 396.0862895504536 1233.3114801545319 437.2773182246295z" fill="rgba(28, 83, 142, 0.4)" class="triangle-float1"></path><path d="M267.28,242.931C316.881,242.209,341.988,188.704,366.006,145.3C388.906,103.918,414.095,58.046,393.021,15.704C370.207,-30.134,318.475,-52.239,267.28,-53.061C214.481,-53.909,158.549,-35.381,134.343,11.55C111.454,55.927,138.573,104.953,163.447,148.248C188.456,191.778,217.082,243.662,267.28,242.931" fill="rgba(28, 83, 142, 0.4)" class="triangle-float1"></path><path d="M972.492,286.727C1011.129,285.568,1049.765,270.545,1068.423,236.692C1086.554,203.797,1077.606,163.965,1057.714,132.104C1039.108,102.303,1007.624,82.885,972.492,83.043C937.629,83.2,907.921,103.853,888.587,132.864C866.359,166.217,846.857,207.575,866.046,242.764C885.745,278.887,931.366,287.961,972.492,286.727" fill="rgba(28, 83, 142, 0.4)" class="triangle-float3"></path><path d="M282.887,208.551C323.85,207.653,346.835,166.574,367.621,131.265C388.872,95.167,416.061,53.824,395.438,17.363C374.659,-19.375,325.069,-20.005,282.887,-18.544C244.045,-17.199,202.947,-8.683,183.076,24.718C162.85,58.715,172.587,100.363,191.463,135.128C211.452,171.944,241.005,209.469,282.887,208.551" fill="rgba(28, 83, 142, 0.4)" class="triangle-float1"></path><path d="M748.65,222.429C787.504,221.525,816.086,190.961,835.992,157.581C856.545,123.115,872.751,81.829,853.484,46.628C833.661,10.412,789.936,-2.035,748.65,-1.992C707.455,-1.949,664.811,11.182,644.197,46.848C623.569,82.538,632.896,126.389,653.972,161.816C674.506,196.333,708.498,223.363,748.65,222.429" fill="rgba(28, 83, 142, 0.4)" class="triangle-float2"></path><path d="M877.8720962671706 201.8176150171655L1003.2394621293487 310.79780351611157 986.8522847661167 76.45024915498743z" fill="rgba(28, 83, 142, 0.4)" class="triangle-float2"></path><path d="M-173.32 236.02 a175.49 175.49 0 1 0 350.98 0 a175.49 175.49 0 1 0 -350.98 0z" fill="rgba(28, 83, 142, 0.4)" class="triangle-float3"></path><path d="M270.09 318.43 a112.83 112.83 0 1 0 225.66 0 a112.83 112.83 0 1 0 -225.66 0z" fill="rgba(28, 83, 142, 0.4)" class="triangle-float2"></path></g><defs><mask id="SvgjsMask1015"><rect width="1440" height="560" fill="#ffffff"></rect></mask><style>
            @keyframes float1 {
                0%{transform: translate(0, 0)}
                50%{transform: translate(-10px, 0)}
                100%{transform: translate(0, 0)}
            }

            .triangle-float1 {
                animation: float1 5s infinite;
            }

            @keyframes float2 {
                0%{transform: translate(0, 0)}
                50%{transform: translate(-5px, -5px)}
                100%{transform: translate(0, 0)}
            }

            .triangle-float2 {
                animation: float2 4s infinite;
            }

            @keyframes float3 {
                0%{transform: translate(0, 0)}
                50%{transform: translate(0, -10px)}
                100%{transform: translate(0, 0)}
            }

            .triangle-float3 {
                animation: float3 6s infinite;
            }
        </style></defs></svg>