<svg xmlns="http://www.w3.org/2000/svg" version="1.1" xmlns:xlink="http://www.w3.org/1999/xlink" xmlns:svgjs="http://svgjs.com/svgjs" width="1600" height="560" preserveAspectRatio="none" viewBox="0 0 1600 560"><g mask="url(&quot;#SvgjsMask1038&quot;)" fill="none"><path d="M800 724.04C915.77 719.76 1021.99 665.8 1103.18 583.18 1183.59 501.34 1237.55 394.72 1236.22 280 1234.93 166.47 1174.51 66 1096.28-16.28 1015.59-101.14 916.96-173.05 800-178.69 678.11-184.58 557.04-135.45 473.77-46.23 392.99 40.33 371.94 161.58 371.91 280 371.87 398.49 391.25 521.2 473.5 606.5 556.97 693.07 679.81 728.49 800 724.04" fill="#1c538e"></path><path d="M800 567.32C874.91 564.55 943.64 529.63 996.17 476.17 1048.2 423.22 1083.12 354.23 1082.26 280 1081.42 206.54 1042.33 141.53 991.71 88.29 939.5 33.38 875.68-13.15 800-16.8 721.13-20.61 642.79 11.18 588.91 68.91 536.64 124.92 523.02 203.37 523 280 522.98 356.67 535.52 436.07 588.73 491.27 642.74 547.28 722.23 570.2 800 567.32" fill="#2774c6"></path><path d="M800 410.6C834.05 409.34 865.29 393.47 889.17 369.17 912.82 345.1 928.69 313.74 928.3 280 927.92 246.61 910.15 217.06 887.14 192.86 863.41 167.9 834.4 146.75 800 145.09 764.15 143.36 728.54 157.81 704.05 184.05 680.29 209.51 674.1 245.17 674.09 280 674.08 314.85 679.78 350.94 703.97 376.03 728.52 401.49 764.65 411.91 800 410.6" fill="#488fdb"></path></g><defs><mask id="SvgjsMask1038"><rect width="1600" height="560" fill="#ffffff"></rect></mask></defs></svg>