<svg xmlns="http://www.w3.org/2000/svg" version="1.1" xmlns:xlink="http://www.w3.org/1999/xlink" xmlns:svgjs="http://svgjs.com/svgjs" width="700" height="300" preserveAspectRatio="none" viewBox="0 0 700 300"><g mask="url(&quot;#SvgjsMask1519&quot;)" fill="none"><g mask="url(&quot;#SvgjsMask1520&quot;)"><path d="M322 14L350 42L350 70L350 98L350 126M322 98L294 126L294 154L294 182L294 210M322 42L294 70L294 98M322 -14L322 14L322 42L322 70L322 98L322 126L322 154L322 182L322 210" stroke="rgba(131, 130, 3, 1)" stroke-width="4.67"></path><path d="M315 210 a7 7 0 1 0 14 0 a7 7 0 1 0 -14 0zM343 126 a7 7 0 1 0 14 0 a7 7 0 1 0 -14 0zM287 210 a7 7 0 1 0 14 0 a7 7 0 1 0 -14 0zM287 98 a7 7 0 1 0 14 0 a7 7 0 1 0 -14 0z" fill="rgba(131, 130, 3, 1)"></path><path d="M406 182L406 210L406 238M406 154L378 182M406 70L378 98L378 126L350 154L350 182M406 -14L406 14L406 42L406 70L406 98L406 126L406 154L406 182L378 210" stroke="rgba(20, 63, 111, 1)" stroke-width="4.67"></path><path d="M371 210 a7 7 0 1 0 14 0 a7 7 0 1 0 -14 0zM399 238 a7 7 0 1 0 14 0 a7 7 0 1 0 -14 0zM371 182 a7 7 0 1 0 14 0 a7 7 0 1 0 -14 0zM343 182 a7 7 0 1 0 14 0 a7 7 0 1 0 -14 0z" fill="rgba(20, 63, 111, 1)"></path><path d="M294 -14L294 14" stroke="rgba(20, 63, 111, 1)" stroke-width="4.67"></path><path d="M287 14 a7 7 0 1 0 14 0 a7 7 0 1 0 -14 0z" fill="rgba(20, 63, 111, 1)"></path><path d="M434 -14L434 14L434 42L434 70L434 98L434 126L434 154L434 182L462 210" stroke="rgba(20, 63, 111, 1)" stroke-width="4.67"></path><path d="M455 210 a7 7 0 1 0 14 0 a7 7 0 1 0 -14 0z" fill="rgba(20, 63, 111, 1)"></path><path d="M266 98L238 126L238 154M266 -14L266 14L266 42L266 70L266 98L266 126L266 154" stroke="rgba(131, 130, 3, 1)" stroke-width="4.67"></path><path d="M259 154 a7 7 0 1 0 14 0 a7 7 0 1 0 -14 0zM231 154 a7 7 0 1 0 14 0 a7 7 0 1 0 -14 0z" fill="rgba(131, 130, 3, 1)"></path><path d="M462 126L490 154L490 182L518 210L518 238M462 -14L462 14L462 42L462 70L462 98L462 126L462 154L462 182L490 210" stroke="rgba(131, 130, 3, 1)" stroke-width="4.67"></path><path d="M483 210 a7 7 0 1 0 14 0 a7 7 0 1 0 -14 0zM511 238 a7 7 0 1 0 14 0 a7 7 0 1 0 -14 0z" fill="rgba(131, 130, 3, 1)"></path><path d="M238 -14L238 14L238 42L238 70" stroke="rgba(131, 130, 3, 1)" stroke-width="4.67"></path><path d="M231 70 a7 7 0 1 0 14 0 a7 7 0 1 0 -14 0z" fill="rgba(131, 130, 3, 1)"></path><path d="M490 -14L490 14L490 42L490 70L490 98" stroke="rgba(7, 91, 227, 1)" stroke-width="4.67"></path><path d="M483 98 a7 7 0 1 0 14 0 a7 7 0 1 0 -14 0z" fill="rgba(7, 91, 227, 1)"></path><path d="M210 182L182 210L182 238M210 -14L210 14L210 42L210 70L210 98L210 126L210 154L210 182L210 210" stroke="rgba(20, 63, 111, 1)" stroke-width="4.67"></path><path d="M203 210 a7 7 0 1 0 14 0 a7 7 0 1 0 -14 0zM175 238 a7 7 0 1 0 14 0 a7 7 0 1 0 -14 0z" fill="rgba(20, 63, 111, 1)"></path><path d="M518 70L546 98L574 126L602 154M518 14L546 42L546 70L574 98M518 -14L518 14L518 42L518 70L518 98L518 126" stroke="rgba(20, 63, 111, 1)" stroke-width="4.67"></path><path d="M511 126 a7 7 0 1 0 14 0 a7 7 0 1 0 -14 0zM595 154 a7 7 0 1 0 14 0 a7 7 0 1 0 -14 0zM567 98 a7 7 0 1 0 14 0 a7 7 0 1 0 -14 0z" fill="rgba(20, 63, 111, 1)"></path><path d="M182 42L154 70M182 98L154 126L154 154L154 182L154 210M182 14L154 42L126 70M182 -14L182 14L182 42L182 70L182 98L182 126L182 154" stroke="rgba(20, 63, 111, 1)" stroke-width="4.67"></path><path d="M175 154 a7 7 0 1 0 14 0 a7 7 0 1 0 -14 0zM147 70 a7 7 0 1 0 14 0 a7 7 0 1 0 -14 0zM147 210 a7 7 0 1 0 14 0 a7 7 0 1 0 -14 0zM119 70 a7 7 0 1 0 14 0 a7 7 0 1 0 -14 0z" fill="rgba(20, 63, 111, 1)"></path></g></g><defs><mask id="SvgjsMask1519"><rect width="700" height="300" fill="#ffffff"></rect></mask><mask id="SvgjsMask1520"><rect width="700" height="300" fill="white"></rect><path d="M318.5 210 a3.5 3.5 0 1 0 7 0 a3.5 3.5 0 1 0 -7 0zM346.5 126 a3.5 3.5 0 1 0 7 0 a3.5 3.5 0 1 0 -7 0zM290.5 210 a3.5 3.5 0 1 0 7 0 a3.5 3.5 0 1 0 -7 0zM290.5 98 a3.5 3.5 0 1 0 7 0 a3.5 3.5 0 1 0 -7 0z" fill="black"></path><path d="M374.5 210 a3.5 3.5 0 1 0 7 0 a3.5 3.5 0 1 0 -7 0zM402.5 238 a3.5 3.5 0 1 0 7 0 a3.5 3.5 0 1 0 -7 0zM374.5 182 a3.5 3.5 0 1 0 7 0 a3.5 3.5 0 1 0 -7 0zM346.5 182 a3.5 3.5 0 1 0 7 0 a3.5 3.5 0 1 0 -7 0z" fill="black"></path><path d="M290.5 14 a3.5 3.5 0 1 0 7 0 a3.5 3.5 0 1 0 -7 0z" fill="black"></path><path d="M458.5 210 a3.5 3.5 0 1 0 7 0 a3.5 3.5 0 1 0 -7 0z" fill="black"></path><path d="M262.5 154 a3.5 3.5 0 1 0 7 0 a3.5 3.5 0 1 0 -7 0zM234.5 154 a3.5 3.5 0 1 0 7 0 a3.5 3.5 0 1 0 -7 0z" fill="black"></path><path d="M486.5 210 a3.5 3.5 0 1 0 7 0 a3.5 3.5 0 1 0 -7 0zM514.5 238 a3.5 3.5 0 1 0 7 0 a3.5 3.5 0 1 0 -7 0z" fill="black"></path><path d="M234.5 70 a3.5 3.5 0 1 0 7 0 a3.5 3.5 0 1 0 -7 0z" fill="black"></path><path d="M486.5 98 a3.5 3.5 0 1 0 7 0 a3.5 3.5 0 1 0 -7 0z" fill="black"></path><path d="M206.5 210 a3.5 3.5 0 1 0 7 0 a3.5 3.5 0 1 0 -7 0zM178.5 238 a3.5 3.5 0 1 0 7 0 a3.5 3.5 0 1 0 -7 0z" fill="black"></path><path d="M514.5 126 a3.5 3.5 0 1 0 7 0 a3.5 3.5 0 1 0 -7 0zM598.5 154 a3.5 3.5 0 1 0 7 0 a3.5 3.5 0 1 0 -7 0zM570.5 98 a3.5 3.5 0 1 0 7 0 a3.5 3.5 0 1 0 -7 0z" fill="black"></path><path d="M178.5 154 a3.5 3.5 0 1 0 7 0 a3.5 3.5 0 1 0 -7 0zM150.5 70 a3.5 3.5 0 1 0 7 0 a3.5 3.5 0 1 0 -7 0zM150.5 210 a3.5 3.5 0 1 0 7 0 a3.5 3.5 0 1 0 -7 0zM122.5 70 a3.5 3.5 0 1 0 7 0 a3.5 3.5 0 1 0 -7 0z" fill="black"></path></mask></defs></svg>