<svg xmlns="http://www.w3.org/2000/svg" version="1.1" xmlns:xlink="http://www.w3.org/1999/xlink" xmlns:svgjs="http://svgjs.com/svgjs" width="700" height="300" preserveAspectRatio="none" viewBox="0 0 700 300"><g mask="url(&quot;#SvgjsMask1487&quot;)" fill="none"><g mask="url(&quot;#SvgjsMask1488&quot;)"><path d="M322 42L350 70L350 98L350 126L350 154M322 182L350 210M322 70L294 98M350 -14L322 14L322 42L322 70L322 98L322 126L322 154L322 182L322 210" stroke="rgba(173, 54, 16, 1)" stroke-width="4.67"></path><path d="M315 210 a7 7 0 1 0 14 0 a7 7 0 1 0 -14 0zM343 154 a7 7 0 1 0 14 0 a7 7 0 1 0 -14 0zM343 210 a7 7 0 1 0 14 0 a7 7 0 1 0 -14 0zM287 98 a7 7 0 1 0 14 0 a7 7 0 1 0 -14 0z" fill="rgba(173, 54, 16, 1)"></path><path d="M378 14L350 42M378 -14L378 14L378 42L378 70L378 98L378 126L378 154L378 182L378 210" stroke="rgba(173, 54, 16, 1)" stroke-width="4.67"></path><path d="M371 210 a7 7 0 1 0 14 0 a7 7 0 1 0 -14 0zM343 42 a7 7 0 1 0 14 0 a7 7 0 1 0 -14 0z" fill="rgba(173, 54, 16, 1)"></path><path d="M322 -14L294 14" stroke="rgba(100, 5, 175, 1)" stroke-width="4.67"></path><path d="M287 14 a7 7 0 1 0 14 0 a7 7 0 1 0 -14 0z" fill="rgba(100, 5, 175, 1)"></path><path d="M406 42L434 70L434 98L434 126M406 154L434 182L434 210L434 238M406 14L434 42M406 -14L406 14L406 42L406 70L406 98L406 126L406 154L406 182" stroke="rgba(100, 5, 175, 1)" stroke-width="4.67"></path><path d="M399 182 a7 7 0 1 0 14 0 a7 7 0 1 0 -14 0zM427 126 a7 7 0 1 0 14 0 a7 7 0 1 0 -14 0zM427 238 a7 7 0 1 0 14 0 a7 7 0 1 0 -14 0zM427 42 a7 7 0 1 0 14 0 a7 7 0 1 0 -14 0z" fill="rgba(100, 5, 175, 1)"></path><path d="M266 70L238 98M266 42L294 70M294 -14L266 14L266 42L266 70L266 98L266 126L294 154" stroke="rgba(100, 5, 175, 1)" stroke-width="4.67"></path><path d="M287 154 a7 7 0 1 0 14 0 a7 7 0 1 0 -14 0zM231 98 a7 7 0 1 0 14 0 a7 7 0 1 0 -14 0zM287 70 a7 7 0 1 0 14 0 a7 7 0 1 0 -14 0z" fill="rgba(100, 5, 175, 1)"></path><path d="M434 -14L462 14L462 42L462 70L462 98L462 126L462 154L462 182L462 210" stroke="rgba(173, 54, 16, 1)" stroke-width="4.67"></path><path d="M455 210 a7 7 0 1 0 14 0 a7 7 0 1 0 -14 0z" fill="rgba(173, 54, 16, 1)"></path><path d="M210 154L238 182L266 210L266 238M238 14L238 42L238 70M210 126L238 154M266 -14L238 14L210 42L210 70L210 98L210 126L210 154L210 182" stroke="#dd1133" stroke-width="4.67"></path><path d="M203 182 a7 7 0 1 0 14 0 a7 7 0 1 0 -14 0zM259 238 a7 7 0 1 0 14 0 a7 7 0 1 0 -14 0zM231 70 a7 7 0 1 0 14 0 a7 7 0 1 0 -14 0zM231 154 a7 7 0 1 0 14 0 a7 7 0 1 0 -14 0z" fill="#dd1133"></path><path d="M490 70L518 98M490 42L518 70M462 -14L490 14L490 42L490 70L490 98L490 126L490 154L490 182L490 210" stroke="rgba(173, 54, 16, 1)" stroke-width="4.67"></path><path d="M483 210 a7 7 0 1 0 14 0 a7 7 0 1 0 -14 0zM511 98 a7 7 0 1 0 14 0 a7 7 0 1 0 -14 0zM511 70 a7 7 0 1 0 14 0 a7 7 0 1 0 -14 0z" fill="rgba(173, 54, 16, 1)"></path><path d="M182 182L154 210L154 238M182 154L154 182L126 210M238 -14L210 14L182 42L182 70L182 98L182 126L182 154L182 182L182 210" stroke="#dd1133" stroke-width="4.67"></path><path d="M175 210 a7 7 0 1 0 14 0 a7 7 0 1 0 -14 0zM147 238 a7 7 0 1 0 14 0 a7 7 0 1 0 -14 0zM119 210 a7 7 0 1 0 14 0 a7 7 0 1 0 -14 0z" fill="#dd1133"></path><path d="M490 -14L518 14" stroke="rgba(173, 54, 16, 1)" stroke-width="4.67"></path><path d="M511 14 a7 7 0 1 0 14 0 a7 7 0 1 0 -14 0z" fill="rgba(173, 54, 16, 1)"></path><path d="M154 42L126 70L126 98L126 126M210 -14L182 14L154 42L154 70L154 98" stroke="rgba(173, 54, 16, 1)" stroke-width="4.67"></path><path d="M147 98 a7 7 0 1 0 14 0 a7 7 0 1 0 -14 0zM119 126 a7 7 0 1 0 14 0 a7 7 0 1 0 -14 0z" fill="rgba(173, 54, 16, 1)"></path><path d="M546 14L574 42M546 70L574 98L574 126M518 182L546 210L546 238M518 -14L546 14L546 42L546 70L546 98L546 126L518 154L518 182L518 210" stroke="#dd1133" stroke-width="4.67"></path><path d="M511 210 a7 7 0 1 0 14 0 a7 7 0 1 0 -14 0zM567 42 a7 7 0 1 0 14 0 a7 7 0 1 0 -14 0zM567 126 a7 7 0 1 0 14 0 a7 7 0 1 0 -14 0zM539 238 a7 7 0 1 0 14 0 a7 7 0 1 0 -14 0z" fill="#dd1133"></path><path d="M182 -14L154 14" stroke="rgba(173, 54, 16, 1)" stroke-width="4.67"></path><path d="M147 14 a7 7 0 1 0 14 0 a7 7 0 1 0 -14 0z" fill="rgba(173, 54, 16, 1)"></path></g></g><defs><mask id="SvgjsMask1487"><rect width="700" height="300" fill="#ffffff"></rect></mask><mask id="SvgjsMask1488"><rect width="700" height="300" fill="white"></rect><path d="M318.5 210 a3.5 3.5 0 1 0 7 0 a3.5 3.5 0 1 0 -7 0zM346.5 154 a3.5 3.5 0 1 0 7 0 a3.5 3.5 0 1 0 -7 0zM346.5 210 a3.5 3.5 0 1 0 7 0 a3.5 3.5 0 1 0 -7 0zM290.5 98 a3.5 3.5 0 1 0 7 0 a3.5 3.5 0 1 0 -7 0z" fill="black"></path><path d="M374.5 210 a3.5 3.5 0 1 0 7 0 a3.5 3.5 0 1 0 -7 0zM346.5 42 a3.5 3.5 0 1 0 7 0 a3.5 3.5 0 1 0 -7 0z" fill="black"></path><path d="M290.5 14 a3.5 3.5 0 1 0 7 0 a3.5 3.5 0 1 0 -7 0z" fill="black"></path><path d="M402.5 182 a3.5 3.5 0 1 0 7 0 a3.5 3.5 0 1 0 -7 0zM430.5 126 a3.5 3.5 0 1 0 7 0 a3.5 3.5 0 1 0 -7 0zM430.5 238 a3.5 3.5 0 1 0 7 0 a3.5 3.5 0 1 0 -7 0zM430.5 42 a3.5 3.5 0 1 0 7 0 a3.5 3.5 0 1 0 -7 0z" fill="black"></path><path d="M290.5 154 a3.5 3.5 0 1 0 7 0 a3.5 3.5 0 1 0 -7 0zM234.5 98 a3.5 3.5 0 1 0 7 0 a3.5 3.5 0 1 0 -7 0zM290.5 70 a3.5 3.5 0 1 0 7 0 a3.5 3.5 0 1 0 -7 0z" fill="black"></path><path d="M458.5 210 a3.5 3.5 0 1 0 7 0 a3.5 3.5 0 1 0 -7 0z" fill="black"></path><path d="M206.5 182 a3.5 3.5 0 1 0 7 0 a3.5 3.5 0 1 0 -7 0zM262.5 238 a3.5 3.5 0 1 0 7 0 a3.5 3.5 0 1 0 -7 0zM234.5 70 a3.5 3.5 0 1 0 7 0 a3.5 3.5 0 1 0 -7 0zM234.5 154 a3.5 3.5 0 1 0 7 0 a3.5 3.5 0 1 0 -7 0z" fill="black"></path><path d="M486.5 210 a3.5 3.5 0 1 0 7 0 a3.5 3.5 0 1 0 -7 0zM514.5 98 a3.5 3.5 0 1 0 7 0 a3.5 3.5 0 1 0 -7 0zM514.5 70 a3.5 3.5 0 1 0 7 0 a3.5 3.5 0 1 0 -7 0z" fill="black"></path><path d="M178.5 210 a3.5 3.5 0 1 0 7 0 a3.5 3.5 0 1 0 -7 0zM150.5 238 a3.5 3.5 0 1 0 7 0 a3.5 3.5 0 1 0 -7 0zM122.5 210 a3.5 3.5 0 1 0 7 0 a3.5 3.5 0 1 0 -7 0z" fill="black"></path><path d="M514.5 14 a3.5 3.5 0 1 0 7 0 a3.5 3.5 0 1 0 -7 0z" fill="black"></path><path d="M150.5 98 a3.5 3.5 0 1 0 7 0 a3.5 3.5 0 1 0 -7 0zM122.5 126 a3.5 3.5 0 1 0 7 0 a3.5 3.5 0 1 0 -7 0z" fill="black"></path><path d="M514.5 210 a3.5 3.5 0 1 0 7 0 a3.5 3.5 0 1 0 -7 0zM570.5 42 a3.5 3.5 0 1 0 7 0 a3.5 3.5 0 1 0 -7 0zM570.5 126 a3.5 3.5 0 1 0 7 0 a3.5 3.5 0 1 0 -7 0zM542.5 238 a3.5 3.5 0 1 0 7 0 a3.5 3.5 0 1 0 -7 0z" fill="black"></path><path d="M150.5 14 a3.5 3.5 0 1 0 7 0 a3.5 3.5 0 1 0 -7 0z" fill="black"></path></mask></defs></svg>