<svg xmlns="http://www.w3.org/2000/svg" version="1.1" xmlns:xlink="http://www.w3.org/1999/xlink" xmlns:svgjs="http://svgjs.com/svgjs" width="700" height="300" preserveAspectRatio="none" viewBox="0 0 700 300"><g mask="url(&quot;#SvgjsMask1529&quot;)" fill="none"><g mask="url(&quot;#SvgjsMask1530&quot;)"><path d="M350 -14L350 14" stroke="rgba(185, 14, 4, 1)" stroke-width="4.67"></path><path d="M343 14 a7 7 0 1 0 14 0 a7 7 0 1 0 -14 0z" fill="rgba(185, 14, 4, 1)"></path><path d="M378 42L350 70L350 98M378 70L378 98L378 126L378 154L378 182M378 -14L378 14L378 42L378 70L406 98L406 126" stroke="rgba(7, 91, 227, 1)" stroke-width="4.67"></path><path d="M399 126 a7 7 0 1 0 14 0 a7 7 0 1 0 -14 0zM343 98 a7 7 0 1 0 14 0 a7 7 0 1 0 -14 0zM371 182 a7 7 0 1 0 14 0 a7 7 0 1 0 -14 0z" fill="rgba(7, 91, 227, 1)"></path><path d="M294 70L322 98L322 126M322 42L322 70M322 -14L322 14L322 42L294 70L294 98" stroke="rgba(5, 32, 61, 1)" stroke-width="4.67"></path><path d="M287 98 a7 7 0 1 0 14 0 a7 7 0 1 0 -14 0zM315 126 a7 7 0 1 0 14 0 a7 7 0 1 0 -14 0zM315 70 a7 7 0 1 0 14 0 a7 7 0 1 0 -14 0z" fill="rgba(5, 32, 61, 1)"></path><path d="M462 210L434 238M434 154L406 182M434 182L434 210L406 238M406 -14L406 14L406 42L434 70L434 98L434 126L434 154L434 182L462 210L462 238" stroke="rgba(5, 32, 61, 1)" stroke-width="4.67"></path><path d="M455 238 a7 7 0 1 0 14 0 a7 7 0 1 0 -14 0zM427 238 a7 7 0 1 0 14 0 a7 7 0 1 0 -14 0zM399 182 a7 7 0 1 0 14 0 a7 7 0 1 0 -14 0zM399 238 a7 7 0 1 0 14 0 a7 7 0 1 0 -14 0z" fill="rgba(5, 32, 61, 1)"></path><path d="M266 154L294 182M294 14L266 42M266 98L238 126L238 154L238 182L238 210M294 -14L294 14L294 42L266 70L266 98L266 126L266 154L266 182L266 210" stroke="rgba(7, 91, 227, 1)" stroke-width="4.67"></path><path d="M259 210 a7 7 0 1 0 14 0 a7 7 0 1 0 -14 0zM287 182 a7 7 0 1 0 14 0 a7 7 0 1 0 -14 0zM259 42 a7 7 0 1 0 14 0 a7 7 0 1 0 -14 0zM231 210 a7 7 0 1 0 14 0 a7 7 0 1 0 -14 0z" fill="rgba(7, 91, 227, 1)"></path><path d="M462 126L490 154L518 182L518 210L490 238M434 -14L434 14L434 42L462 70L462 98L462 126L462 154" stroke="rgba(5, 32, 61, 1)" stroke-width="4.67"></path><path d="M455 154 a7 7 0 1 0 14 0 a7 7 0 1 0 -14 0zM483 238 a7 7 0 1 0 14 0 a7 7 0 1 0 -14 0z" fill="rgba(5, 32, 61, 1)"></path><path d="M490 70L518 98L518 126L518 154M462 -14L462 14L462 42L490 70L490 98" stroke="rgba(7, 91, 227, 1)" stroke-width="4.67"></path><path d="M483 98 a7 7 0 1 0 14 0 a7 7 0 1 0 -14 0zM511 154 a7 7 0 1 0 14 0 a7 7 0 1 0 -14 0z" fill="rgba(7, 91, 227, 1)"></path><path d="M490 -14L490 14" stroke="rgba(185, 14, 4, 1)" stroke-width="4.67"></path><path d="M483 14 a7 7 0 1 0 14 0 a7 7 0 1 0 -14 0z" fill="rgba(185, 14, 4, 1)"></path><path d="M182 98L210 126L210 154L210 182L210 210M182 126L154 154L154 182M210 -14L210 14L182 42L182 70L182 98L182 126L182 154L182 182L182 210" stroke="rgba(185, 14, 4, 1)" stroke-width="4.67"></path><path d="M175 210 a7 7 0 1 0 14 0 a7 7 0 1 0 -14 0zM203 210 a7 7 0 1 0 14 0 a7 7 0 1 0 -14 0zM147 182 a7 7 0 1 0 14 0 a7 7 0 1 0 -14 0z" fill="rgba(185, 14, 4, 1)"></path><path d="M70 210L98 238M98 154L98 182L98 210M126 126L126 154L126 182M182 -14L182 14L154 42L154 70L126 98L126 126L98 154L70 182L70 210L70 238" stroke="rgba(5, 32, 61, 1)" stroke-width="4.67"></path><path d="M63 238 a7 7 0 1 0 14 0 a7 7 0 1 0 -14 0zM91 238 a7 7 0 1 0 14 0 a7 7 0 1 0 -14 0zM91 210 a7 7 0 1 0 14 0 a7 7 0 1 0 -14 0zM119 182 a7 7 0 1 0 14 0 a7 7 0 1 0 -14 0z" fill="rgba(5, 32, 61, 1)"></path></g></g><defs><mask id="SvgjsMask1529"><rect width="700" height="300" fill="#ffffff"></rect></mask><mask id="SvgjsMask1530"><rect width="700" height="300" fill="white"></rect><path d="M346.5 14 a3.5 3.5 0 1 0 7 0 a3.5 3.5 0 1 0 -7 0z" fill="black"></path><path d="M402.5 126 a3.5 3.5 0 1 0 7 0 a3.5 3.5 0 1 0 -7 0zM346.5 98 a3.5 3.5 0 1 0 7 0 a3.5 3.5 0 1 0 -7 0zM374.5 182 a3.5 3.5 0 1 0 7 0 a3.5 3.5 0 1 0 -7 0z" fill="black"></path><path d="M290.5 98 a3.5 3.5 0 1 0 7 0 a3.5 3.5 0 1 0 -7 0zM318.5 126 a3.5 3.5 0 1 0 7 0 a3.5 3.5 0 1 0 -7 0zM318.5 70 a3.5 3.5 0 1 0 7 0 a3.5 3.5 0 1 0 -7 0z" fill="black"></path><path d="M458.5 238 a3.5 3.5 0 1 0 7 0 a3.5 3.5 0 1 0 -7 0zM430.5 238 a3.5 3.5 0 1 0 7 0 a3.5 3.5 0 1 0 -7 0zM402.5 182 a3.5 3.5 0 1 0 7 0 a3.5 3.5 0 1 0 -7 0zM402.5 238 a3.5 3.5 0 1 0 7 0 a3.5 3.5 0 1 0 -7 0z" fill="black"></path><path d="M262.5 210 a3.5 3.5 0 1 0 7 0 a3.5 3.5 0 1 0 -7 0zM290.5 182 a3.5 3.5 0 1 0 7 0 a3.5 3.5 0 1 0 -7 0zM262.5 42 a3.5 3.5 0 1 0 7 0 a3.5 3.5 0 1 0 -7 0zM234.5 210 a3.5 3.5 0 1 0 7 0 a3.5 3.5 0 1 0 -7 0z" fill="black"></path><path d="M458.5 154 a3.5 3.5 0 1 0 7 0 a3.5 3.5 0 1 0 -7 0zM486.5 238 a3.5 3.5 0 1 0 7 0 a3.5 3.5 0 1 0 -7 0z" fill="black"></path><path d="M486.5 98 a3.5 3.5 0 1 0 7 0 a3.5 3.5 0 1 0 -7 0zM514.5 154 a3.5 3.5 0 1 0 7 0 a3.5 3.5 0 1 0 -7 0z" fill="black"></path><path d="M486.5 14 a3.5 3.5 0 1 0 7 0 a3.5 3.5 0 1 0 -7 0z" fill="black"></path><path d="M178.5 210 a3.5 3.5 0 1 0 7 0 a3.5 3.5 0 1 0 -7 0zM206.5 210 a3.5 3.5 0 1 0 7 0 a3.5 3.5 0 1 0 -7 0zM150.5 182 a3.5 3.5 0 1 0 7 0 a3.5 3.5 0 1 0 -7 0z" fill="black"></path><path d="M66.5 238 a3.5 3.5 0 1 0 7 0 a3.5 3.5 0 1 0 -7 0zM94.5 238 a3.5 3.5 0 1 0 7 0 a3.5 3.5 0 1 0 -7 0zM94.5 210 a3.5 3.5 0 1 0 7 0 a3.5 3.5 0 1 0 -7 0zM122.5 182 a3.5 3.5 0 1 0 7 0 a3.5 3.5 0 1 0 -7 0z" fill="black"></path></mask></defs></svg>