<svg xmlns="http://www.w3.org/2000/svg" version="1.1" xmlns:xlink="http://www.w3.org/1999/xlink" xmlns:svgjs="http://svgjs.com/svgjs" width="700" height="300" preserveAspectRatio="none" viewBox="0 0 700 300"><g mask="url(&quot;#SvgjsMask1479&quot;)" fill="none"><g mask="url(&quot;#SvgjsMask1480&quot;)"><path d="M350 -14L350 14L350 42L350 70L350 98" stroke="rgba(10, 153, 20, 1)" stroke-width="4.67"></path><path d="M343 98 a7 7 0 1 0 14 0 a7 7 0 1 0 -14 0z" fill="rgba(10, 153, 20, 1)"></path><path d="M378 -14L378 14L378 42L378 70" stroke="#dd1133" stroke-width="4.67"></path><path d="M371 70 a7 7 0 1 0 14 0 a7 7 0 1 0 -14 0z" fill="#dd1133"></path><path d="M322 126L350 154L350 182L350 210M322 -14L322 14L322 42L322 70L322 98L322 126L322 154L322 182L322 210" stroke="#3a7cc3" stroke-width="4.67"></path><path d="M315 210 a7 7 0 1 0 14 0 a7 7 0 1 0 -14 0zM343 210 a7 7 0 1 0 14 0 a7 7 0 1 0 -14 0z" fill="#3a7cc3"></path><path d="M406 -14L406 14L406 42L406 70" stroke="#3a7cc3" stroke-width="4.67"></path><path d="M399 70 a7 7 0 1 0 14 0 a7 7 0 1 0 -14 0z" fill="#3a7cc3"></path><path d="M294 70L266 98L266 126L266 154M294 42L266 70L238 98L238 126M294 -14L294 14L294 42L294 70L294 98L294 126L294 154L294 182" stroke="#3a7cc3" stroke-width="4.67"></path><path d="M287 182 a7 7 0 1 0 14 0 a7 7 0 1 0 -14 0zM259 154 a7 7 0 1 0 14 0 a7 7 0 1 0 -14 0zM231 126 a7 7 0 1 0 14 0 a7 7 0 1 0 -14 0z" fill="#3a7cc3"></path><path d="M434 126L462 154M434 154L406 182L406 210M434 98L406 126M434 -14L434 14L434 42L434 70L434 98L434 126L434 154L434 182L434 210" stroke="#3a7cc3" stroke-width="4.67"></path><path d="M427 210 a7 7 0 1 0 14 0 a7 7 0 1 0 -14 0zM455 154 a7 7 0 1 0 14 0 a7 7 0 1 0 -14 0zM399 210 a7 7 0 1 0 14 0 a7 7 0 1 0 -14 0zM399 126 a7 7 0 1 0 14 0 a7 7 0 1 0 -14 0z" fill="#3a7cc3"></path><path d="M266 -14L266 14L238 42" stroke="#3a7cc3" stroke-width="4.67"></path><path d="M231 42 a7 7 0 1 0 14 0 a7 7 0 1 0 -14 0z" fill="#3a7cc3"></path><path d="M462 70L462 98L462 126L490 154M462 -14L462 14L462 42L462 70L490 98" stroke="rgba(10, 153, 20, 1)" stroke-width="4.67"></path><path d="M483 98 a7 7 0 1 0 14 0 a7 7 0 1 0 -14 0zM483 154 a7 7 0 1 0 14 0 a7 7 0 1 0 -14 0z" fill="rgba(10, 153, 20, 1)"></path><path d="M210 98L182 126L182 154L182 182L182 210M210 154L238 182L238 210L238 238M210 42L182 70L182 98L154 126L154 154M238 -14L238 14L210 42L210 70L210 98L210 126L210 154L210 182L210 210L210 238" stroke="#3a7cc3" stroke-width="4.67"></path><path d="M203 238 a7 7 0 1 0 14 0 a7 7 0 1 0 -14 0zM175 210 a7 7 0 1 0 14 0 a7 7 0 1 0 -14 0zM231 238 a7 7 0 1 0 14 0 a7 7 0 1 0 -14 0zM147 154 a7 7 0 1 0 14 0 a7 7 0 1 0 -14 0z" fill="#3a7cc3"></path><path d="M518 98L518 126L518 154L518 182L518 210M546 182L574 210M546 154L574 182L602 210L630 238M490 -14L490 14L490 42L490 70L518 98L546 126L546 154L546 182L546 210" stroke="rgba(10, 153, 20, 1)" stroke-width="4.67"></path><path d="M539 210 a7 7 0 1 0 14 0 a7 7 0 1 0 -14 0zM511 210 a7 7 0 1 0 14 0 a7 7 0 1 0 -14 0zM567 210 a7 7 0 1 0 14 0 a7 7 0 1 0 -14 0zM623 238 a7 7 0 1 0 14 0 a7 7 0 1 0 -14 0z" fill="rgba(10, 153, 20, 1)"></path><path d="M518 14L546 42L546 70L546 98L574 126M518 -14L518 14L518 42L518 70" stroke="rgba(10, 153, 20, 1)" stroke-width="4.67"></path><path d="M511 70 a7 7 0 1 0 14 0 a7 7 0 1 0 -14 0zM567 126 a7 7 0 1 0 14 0 a7 7 0 1 0 -14 0z" fill="rgba(10, 153, 20, 1)"></path><path d="M182 -14L210 14" stroke="#dd1133" stroke-width="4.67"></path><path d="M203 14 a7 7 0 1 0 14 0 a7 7 0 1 0 -14 0z" fill="#dd1133"></path></g></g><defs><mask id="SvgjsMask1479"><rect width="700" height="300" fill="#ffffff"></rect></mask><mask id="SvgjsMask1480"><rect width="700" height="300" fill="white"></rect><path d="M346.5 98 a3.5 3.5 0 1 0 7 0 a3.5 3.5 0 1 0 -7 0z" fill="black"></path><path d="M374.5 70 a3.5 3.5 0 1 0 7 0 a3.5 3.5 0 1 0 -7 0z" fill="black"></path><path d="M318.5 210 a3.5 3.5 0 1 0 7 0 a3.5 3.5 0 1 0 -7 0zM346.5 210 a3.5 3.5 0 1 0 7 0 a3.5 3.5 0 1 0 -7 0z" fill="black"></path><path d="M402.5 70 a3.5 3.5 0 1 0 7 0 a3.5 3.5 0 1 0 -7 0z" fill="black"></path><path d="M290.5 182 a3.5 3.5 0 1 0 7 0 a3.5 3.5 0 1 0 -7 0zM262.5 154 a3.5 3.5 0 1 0 7 0 a3.5 3.5 0 1 0 -7 0zM234.5 126 a3.5 3.5 0 1 0 7 0 a3.5 3.5 0 1 0 -7 0z" fill="black"></path><path d="M430.5 210 a3.5 3.5 0 1 0 7 0 a3.5 3.5 0 1 0 -7 0zM458.5 154 a3.5 3.5 0 1 0 7 0 a3.5 3.5 0 1 0 -7 0zM402.5 210 a3.5 3.5 0 1 0 7 0 a3.5 3.5 0 1 0 -7 0zM402.5 126 a3.5 3.5 0 1 0 7 0 a3.5 3.5 0 1 0 -7 0z" fill="black"></path><path d="M234.5 42 a3.5 3.5 0 1 0 7 0 a3.5 3.5 0 1 0 -7 0z" fill="black"></path><path d="M486.5 98 a3.5 3.5 0 1 0 7 0 a3.5 3.5 0 1 0 -7 0zM486.5 154 a3.5 3.5 0 1 0 7 0 a3.5 3.5 0 1 0 -7 0z" fill="black"></path><path d="M206.5 238 a3.5 3.5 0 1 0 7 0 a3.5 3.5 0 1 0 -7 0zM178.5 210 a3.5 3.5 0 1 0 7 0 a3.5 3.5 0 1 0 -7 0zM234.5 238 a3.5 3.5 0 1 0 7 0 a3.5 3.5 0 1 0 -7 0zM150.5 154 a3.5 3.5 0 1 0 7 0 a3.5 3.5 0 1 0 -7 0z" fill="black"></path><path d="M542.5 210 a3.5 3.5 0 1 0 7 0 a3.5 3.5 0 1 0 -7 0zM514.5 210 a3.5 3.5 0 1 0 7 0 a3.5 3.5 0 1 0 -7 0zM570.5 210 a3.5 3.5 0 1 0 7 0 a3.5 3.5 0 1 0 -7 0zM626.5 238 a3.5 3.5 0 1 0 7 0 a3.5 3.5 0 1 0 -7 0z" fill="black"></path><path d="M514.5 70 a3.5 3.5 0 1 0 7 0 a3.5 3.5 0 1 0 -7 0zM570.5 126 a3.5 3.5 0 1 0 7 0 a3.5 3.5 0 1 0 -7 0z" fill="black"></path><path d="M206.5 14 a3.5 3.5 0 1 0 7 0 a3.5 3.5 0 1 0 -7 0z" fill="black"></path></mask></defs></svg>