<svg xmlns="http://www.w3.org/2000/svg" version="1.1" xmlns:xlink="http://www.w3.org/1999/xlink" xmlns:svgjs="http://svgjs.com/svgjs" width="700" height="300" preserveAspectRatio="none" viewBox="0 0 700 300"><g mask="url(&quot;#SvgjsMask1501&quot;)" fill="none"><g mask="url(&quot;#SvgjsMask1502&quot;)"><path d="M350 70L378 98M350 182L378 210L378 238M350 42L378 70M350 -14L350 14L350 42L350 70L350 98L350 126L350 154L350 182L350 210" stroke="rgba(6, 33, 143, 1)" stroke-width="4.67"></path><path d="M343 210 a7 7 0 1 0 14 0 a7 7 0 1 0 -14 0zM371 98 a7 7 0 1 0 14 0 a7 7 0 1 0 -14 0zM371 238 a7 7 0 1 0 14 0 a7 7 0 1 0 -14 0zM371 70 a7 7 0 1 0 14 0 a7 7 0 1 0 -14 0z" fill="rgba(6, 33, 143, 1)"></path><path d="M378 -14L406 14" stroke="rgba(161, 2, 29, 1)" stroke-width="4.67"></path><path d="M399 14 a7 7 0 1 0 14 0 a7 7 0 1 0 -14 0z" fill="rgba(161, 2, 29, 1)"></path><path d="M322 -14L322 14" stroke="rgba(161, 2, 29, 1)" stroke-width="4.67"></path><path d="M315 14 a7 7 0 1 0 14 0 a7 7 0 1 0 -14 0z" fill="rgba(161, 2, 29, 1)"></path><path d="M434 70L434 98M406 154L434 182L434 210L434 238M406 126L378 154L378 182M406 -14L434 14L434 42L434 70L406 98L406 126L406 154L406 182" stroke="rgba(37, 101, 173, 1)" stroke-width="4.67"></path><path d="M399 182 a7 7 0 1 0 14 0 a7 7 0 1 0 -14 0zM427 98 a7 7 0 1 0 14 0 a7 7 0 1 0 -14 0zM427 238 a7 7 0 1 0 14 0 a7 7 0 1 0 -14 0zM371 182 a7 7 0 1 0 14 0 a7 7 0 1 0 -14 0z" fill="rgba(37, 101, 173, 1)"></path><path d="M294 42L322 70M322 98L294 126M294 70L294 98M294 -14L294 14L294 42L294 70L322 98L322 126" stroke="rgba(161, 2, 29, 1)" stroke-width="4.67"></path><path d="M315 126 a7 7 0 1 0 14 0 a7 7 0 1 0 -14 0zM315 70 a7 7 0 1 0 14 0 a7 7 0 1 0 -14 0zM287 126 a7 7 0 1 0 14 0 a7 7 0 1 0 -14 0zM287 98 a7 7 0 1 0 14 0 a7 7 0 1 0 -14 0z" fill="rgba(161, 2, 29, 1)"></path><path d="M434 -14L462 14L462 42" stroke="rgba(37, 101, 173, 1)" stroke-width="4.67"></path><path d="M455 42 a7 7 0 1 0 14 0 a7 7 0 1 0 -14 0z" fill="rgba(37, 101, 173, 1)"></path><path d="M266 70L238 98L238 126L238 154L238 182M266 42L238 70L210 98L210 126M266 14L238 42M266 -14L266 14L266 42L266 70L266 98" stroke="rgba(37, 101, 173, 1)" stroke-width="4.67"></path><path d="M259 98 a7 7 0 1 0 14 0 a7 7 0 1 0 -14 0zM231 182 a7 7 0 1 0 14 0 a7 7 0 1 0 -14 0zM203 126 a7 7 0 1 0 14 0 a7 7 0 1 0 -14 0zM231 42 a7 7 0 1 0 14 0 a7 7 0 1 0 -14 0z" fill="rgba(37, 101, 173, 1)"></path><path d="M490 126L462 154M490 154L518 182M490 182L462 210L462 238M462 -14L490 14L490 42L490 70L490 98L490 126L490 154L490 182L490 210L490 238" stroke="rgba(161, 2, 29, 1)" stroke-width="4.67"></path><path d="M483 238 a7 7 0 1 0 14 0 a7 7 0 1 0 -14 0zM455 154 a7 7 0 1 0 14 0 a7 7 0 1 0 -14 0zM511 182 a7 7 0 1 0 14 0 a7 7 0 1 0 -14 0zM455 238 a7 7 0 1 0 14 0 a7 7 0 1 0 -14 0z" fill="rgba(161, 2, 29, 1)"></path><path d="M490 -14L518 14" stroke="rgba(37, 101, 173, 1)" stroke-width="4.67"></path><path d="M511 14 a7 7 0 1 0 14 0 a7 7 0 1 0 -14 0z" fill="rgba(37, 101, 173, 1)"></path><path d="M210 14L210 42L210 70L182 98M210 -14L210 14L182 42" stroke="rgba(37, 101, 173, 1)" stroke-width="4.67"></path><path d="M175 42 a7 7 0 1 0 14 0 a7 7 0 1 0 -14 0zM175 98 a7 7 0 1 0 14 0 a7 7 0 1 0 -14 0z" fill="rgba(37, 101, 173, 1)"></path><path d="M546 14L574 42M546 42L518 70M518 -14L546 14L546 42L546 70" stroke="rgba(6, 33, 143, 1)" stroke-width="4.67"></path><path d="M539 70 a7 7 0 1 0 14 0 a7 7 0 1 0 -14 0zM567 42 a7 7 0 1 0 14 0 a7 7 0 1 0 -14 0zM511 70 a7 7 0 1 0 14 0 a7 7 0 1 0 -14 0z" fill="rgba(6, 33, 143, 1)"></path><path d="M154 42L126 70L126 98L126 126L98 154M182 -14L182 14L154 42L154 70" stroke="rgba(37, 101, 173, 1)" stroke-width="4.67"></path><path d="M147 70 a7 7 0 1 0 14 0 a7 7 0 1 0 -14 0zM91 154 a7 7 0 1 0 14 0 a7 7 0 1 0 -14 0z" fill="rgba(37, 101, 173, 1)"></path></g></g><defs><mask id="SvgjsMask1501"><rect width="700" height="300" fill="#ffffff"></rect></mask><mask id="SvgjsMask1502"><rect width="700" height="300" fill="white"></rect><path d="M346.5 210 a3.5 3.5 0 1 0 7 0 a3.5 3.5 0 1 0 -7 0zM374.5 98 a3.5 3.5 0 1 0 7 0 a3.5 3.5 0 1 0 -7 0zM374.5 238 a3.5 3.5 0 1 0 7 0 a3.5 3.5 0 1 0 -7 0zM374.5 70 a3.5 3.5 0 1 0 7 0 a3.5 3.5 0 1 0 -7 0z" fill="black"></path><path d="M402.5 14 a3.5 3.5 0 1 0 7 0 a3.5 3.5 0 1 0 -7 0z" fill="black"></path><path d="M318.5 14 a3.5 3.5 0 1 0 7 0 a3.5 3.5 0 1 0 -7 0z" fill="black"></path><path d="M402.5 182 a3.5 3.5 0 1 0 7 0 a3.5 3.5 0 1 0 -7 0zM430.5 98 a3.5 3.5 0 1 0 7 0 a3.5 3.5 0 1 0 -7 0zM430.5 238 a3.5 3.5 0 1 0 7 0 a3.5 3.5 0 1 0 -7 0zM374.5 182 a3.5 3.5 0 1 0 7 0 a3.5 3.5 0 1 0 -7 0z" fill="black"></path><path d="M318.5 126 a3.5 3.5 0 1 0 7 0 a3.5 3.5 0 1 0 -7 0zM318.5 70 a3.5 3.5 0 1 0 7 0 a3.5 3.5 0 1 0 -7 0zM290.5 126 a3.5 3.5 0 1 0 7 0 a3.5 3.5 0 1 0 -7 0zM290.5 98 a3.5 3.5 0 1 0 7 0 a3.5 3.5 0 1 0 -7 0z" fill="black"></path><path d="M458.5 42 a3.5 3.5 0 1 0 7 0 a3.5 3.5 0 1 0 -7 0z" fill="black"></path><path d="M262.5 98 a3.5 3.5 0 1 0 7 0 a3.5 3.5 0 1 0 -7 0zM234.5 182 a3.5 3.5 0 1 0 7 0 a3.5 3.5 0 1 0 -7 0zM206.5 126 a3.5 3.5 0 1 0 7 0 a3.5 3.5 0 1 0 -7 0zM234.5 42 a3.5 3.5 0 1 0 7 0 a3.5 3.5 0 1 0 -7 0z" fill="black"></path><path d="M486.5 238 a3.5 3.5 0 1 0 7 0 a3.5 3.5 0 1 0 -7 0zM458.5 154 a3.5 3.5 0 1 0 7 0 a3.5 3.5 0 1 0 -7 0zM514.5 182 a3.5 3.5 0 1 0 7 0 a3.5 3.5 0 1 0 -7 0zM458.5 238 a3.5 3.5 0 1 0 7 0 a3.5 3.5 0 1 0 -7 0z" fill="black"></path><path d="M514.5 14 a3.5 3.5 0 1 0 7 0 a3.5 3.5 0 1 0 -7 0z" fill="black"></path><path d="M178.5 42 a3.5 3.5 0 1 0 7 0 a3.5 3.5 0 1 0 -7 0zM178.5 98 a3.5 3.5 0 1 0 7 0 a3.5 3.5 0 1 0 -7 0z" fill="black"></path><path d="M542.5 70 a3.5 3.5 0 1 0 7 0 a3.5 3.5 0 1 0 -7 0zM570.5 42 a3.5 3.5 0 1 0 7 0 a3.5 3.5 0 1 0 -7 0zM514.5 70 a3.5 3.5 0 1 0 7 0 a3.5 3.5 0 1 0 -7 0z" fill="black"></path><path d="M150.5 70 a3.5 3.5 0 1 0 7 0 a3.5 3.5 0 1 0 -7 0zM94.5 154 a3.5 3.5 0 1 0 7 0 a3.5 3.5 0 1 0 -7 0z" fill="black"></path></mask></defs></svg>