<svg xmlns="http://www.w3.org/2000/svg" version="1.1" xmlns:xlink="http://www.w3.org/1999/xlink" xmlns:svgjs="http://svgjs.com/svgjs" width="1000" height="300" preserveAspectRatio="none" viewBox="0 0 1000 300"><g mask="url(&quot;#SvgjsMask1001&quot;)" fill="none"><path d="M750 54.81C738.92 54.81 731.02 65.32 731.02 75C731.02 83.89 739.25 91.94 750 91.94C767.05 91.94 786.63 84.12 786.63 75C786.63 65.55 766.72 54.81 750 54.81" stroke="rgba(51, 121, 194, 0.58)" stroke-width="2"></path><path d="M1050 58.56C1029.87 58.56 983.2 16.71 983.2 0C983.2 -12.57 1032.2 -15.6 1050 0C1065.6 13.68 1063.27 58.56 1050 58.56" stroke="rgba(51, 121, 194, 0.58)" stroke-width="2"></path><path d="M600 113.94C579.44 113.94 563.65 127.7 560.94 150C556.89 183.23 574.8 187.17 586.48 225C594.33 250.45 588.38 276.56 600 276.56C613.89 276.56 626.24 253.88 637.5 225C650.91 190.6 659.73 180.77 649.34 150C640.98 125.24 623.64 113.94 600 113.94" stroke="rgba(51, 121, 194, 0.58)" stroke-width="2"></path><path d="M825 205.36C799.1 205.36 770 208.5 770 225C770 247.78 802.71 283.93 825 283.93C842.71 283.93 850 251.25 850 225C850 211.96 839.1 205.36 825 205.36" stroke="rgba(51, 121, 194, 0.58)" stroke-width="2"></path><path d="M75 45.7C39.95 33.56 25.92 49.72 0 33.93C-11.58 26.87 -11.68 5.28 0 0C25.82 -11.68 37.5 0 75 0C102.08 0 107.59 -9.81 129.17 0C145.09 7.23 133.86 24.37 150 34.09C181.77 53.22 192.96 66.23 225 57.69C256.87 49.19 248.6 22.47 277.82 0C286.1 -6.37 288.91 0 300 0C337.5 0 337.5 0 375 0C412.5 0 412.5 0 450 0C469.9 0 475.13 -9.96 489.81 0C512.63 15.48 500.61 34.97 525 50.89C555.71 70.94 563.25 74.32 600 71.94C638.25 69.46 640.83 40.2 675 41.16C695.05 41.73 691.16 58.66 708.43 75C728.66 94.13 725.34 106.81 750 112.1C783.62 119.31 797.11 88.93 825 100C844.83 107.88 845.45 128.73 845.45 150C845.45 159.09 835.14 155.2 825 160.71C787.42 181.12 785 204.62 750 201.84C717.63 199.27 719.06 176.97 690.25 150C681.56 141.86 684.28 139.04 675 131.63C639.15 102.98 636.18 75.26 600 77.88C561.18 80.69 564.23 138.73 525 142.5C489.23 145.94 485.65 119.41 450 92.31C441.26 85.66 444.88 81.74 436.22 75C407.38 52.54 405.91 33.9 375 33.9C342.69 33.9 340.97 52.85 309.78 75C303.47 79.48 307.27 85.5 300 87.16C264.88 95.2 262.29 89.24 225 94.4C187.29 99.62 183.31 114 150 107.93C130.11 104.3 136.01 89.44 118.6 75C98.51 58.33 99.25 54.1 75 45.7" stroke="rgba(51, 121, 194, 0.58)" stroke-width="2"></path><path d="M750 30.77C731.9 18.83 718.83 8.99 718.83 0C718.83 -6.4 734.41 0 750 0C787.5 0 787.5 0 825 0C851.69 0 878.39 -13.21 878.39 0C878.39 21.79 857.73 62.16 825 70C793.53 77.54 784.98 53.83 750 30.77" stroke="rgba(51, 121, 194, 0.58)" stroke-width="2"></path><path d="M1050 32.88C1038.7 32.88 1012.5 9.38 1012.5 0C1012.5 -7.06 1040.01 -8.76 1050 0C1058.76 7.68 1057.45 32.88 1050 32.88" stroke="rgba(51, 121, 194, 0.58)" stroke-width="2"></path><path d="M924 150C924 128.99 946.98 108.26 975 106.78C1009.98 104.93 1015.28 123.32 1050 143.33C1052.78 144.93 1050 146.67 1050 150C1050 157.5 1056 161.86 1050 165C1018.5 181.48 1009.68 193.36 975 189.23C946.68 185.86 924 170.22 924 150" stroke="rgba(51, 121, 194, 0.58)" stroke-width="2"></path><path d="M14.36 225C14.36 198.9 40.93 188.65 75 179.03C108.75 169.5 113.25 179.18 150 186.7C188.25 194.53 189.31 194.95 225 209.72C235.59 214.1 242.55 217.59 242.55 225C242.55 232.1 232.08 230.24 225 238.75C200.9 267.74 207.01 278.09 180.18 300C169.51 308.71 165.09 300 150 300C115.63 300 114.7 302.45 81.25 300C77.2 299.7 77.77 297.61 75 294.51C44.32 260.11 14.36 256.64 14.36 225" stroke="rgba(51, 121, 194, 0.58)" stroke-width="2"></path><path d="M332.93 225C332.93 204.81 349.82 196.59 375 186.67C408.36 173.52 413.26 186.47 450 178.85C488.26 170.91 498.12 143.83 525 155.56C550.99 166.9 555.74 193.08 555.74 225C555.74 243.43 541.44 241.81 525 256.25C498.73 279.31 499.38 283.04 470.31 300C461.88 304.92 460.15 300 450 300C438.11 300 437.05 304.1 426.22 300C399.55 289.91 397.51 289.72 375 271.62C350.86 252.22 332.93 247.28 332.93 225" stroke="rgba(51, 121, 194, 0.58)" stroke-width="2"></path><path d="M75 16.41C39.72 20.75 32.48 18.72 0 11.61C-5.02 10.51 -5.03 0.78 0 0C32.47 -5.03 37.5 0 75 0C84.72 0 94.44 -3.55 94.44 0C94.44 4.65 86.94 14.94 75 16.41" stroke="rgba(51, 121, 194, 0.58)" stroke-width="2"></path><path d="M375 8.22C351.01 0.6 325 2.07 325 0C325 -2.04 350 0 375 0C412.5 0 412.5 0 450 0C458.34 0 466.67 -5.54 466.67 0C466.67 14.31 465.87 38.29 450 39.71C420.03 42.4 413.51 20.45 375 8.22" stroke="rgba(51, 121, 194, 0.58)" stroke-width="2"></path><path d="M649.29 75C649.29 68.11 663.22 64.02 675 64.02C681.5 64.02 685.84 68.84 685.84 75C685.84 83.52 682.36 93.37 675 93.37C664.09 93.37 649.29 82.79 649.29 75" stroke="rgba(51, 121, 194, 0.58)" stroke-width="2"></path><path d="M750 6.73C745.53 5.18 743.18 1.97 743.18 0C743.18 -1.4 746.59 0 750 0C787.5 0 787.5 0 825 0C835.81 0 846.61 -5.35 846.61 0C846.61 8.82 840.14 27.28 825 28.33C791.84 30.64 786.44 19.35 750 6.73" stroke="rgba(51, 121, 194, 0.58)" stroke-width="2"></path><path d="M1050 7.19C1047.53 7.19 1041.8 2.05 1041.8 0C1041.8 -1.54 1047.82 -1.92 1050 0C1051.92 1.68 1051.63 7.19 1050 7.19" stroke="rgba(51, 121, 194, 0.58)" stroke-width="2"></path><path d="M722.03 150C722.03 140.08 735.35 132.26 750 132.26C769.45 132.26 790.24 139.85 790.24 150C790.24 160.85 769.07 174.26 750 174.26C734.97 174.26 722.03 161.08 722.03 150" stroke="rgba(51, 121, 194, 0.58)" stroke-width="2"></path><path d="M961.5 150C961.5 144.44 967.58 138.56 975 138.56C985.58 138.56 997.5 144.49 997.5 150C997.5 155.4 985.67 160.38 975 160.38C967.67 160.38 961.5 155.35 961.5 150" stroke="rgba(51, 121, 194, 0.58)" stroke-width="2"></path><path d="M54.26 225C54.26 216.07 62.93 209.27 75 209.27C108.12 209.27 144.64 215.27 144.64 225C144.64 235.03 106.63 248.78 75 248.78C61.44 248.78 54.26 235.82 54.26 225" stroke="rgba(51, 121, 194, 0.58)" stroke-width="2"></path><path d="M355.79 225C355.79 215.78 362.9 210.34 375 207.5C410 199.28 413.25 198.59 450 202.88C488.25 207.34 525 208.38 525 225C525 244.08 489.64 268.67 450 274.29C414.64 279.31 409.68 264.43 375 246.28C362.58 239.78 355.79 235.17 355.79 225" stroke="rgba(51, 121, 194, 0.58)" stroke-width="2"></path><path d="M133.33 300C133.33 273.17 143.93 233.33 150 233.33C155.92 233.33 157.32 269.95 157.32 300C157.32 303.28 153.66 300 150 300C141.67 300 133.33 306.51 133.33 300" stroke="rgba(51, 121, 194, 0.58)" stroke-width="2"></path></g><defs><mask id="SvgjsMask1001"><rect width="1000" height="300" fill="#ffffff"></rect></mask></defs></svg>