<svg xmlns="http://www.w3.org/2000/svg" version="1.1" xmlns:xlink="http://www.w3.org/1999/xlink" xmlns:svgjs="http://svgjs.com/svgjs" width="1440" height="560" preserveAspectRatio="none" viewBox="0 0 1440 560"><g mask="url(&quot;#SvgjsMask1003&quot;)" fill="none"><rect width="1440" height="560" x="0" y="0" fill="#0e2a47"></rect><path d="M1099.37-17.95C936.74 29.81 899.74 478.42 650.14 489.87 400.54 501.32 425.53 419.87 200.92 419.87-23.7 419.87-134.65 489.66-248.31 489.87" stroke="rgba(51,121,194,0.58)" stroke-width="2"></path><path d="M1087.26-82.99C948.67-32.28 1001.55 381.88 724.66 382.81 447.78 383.74 191.83 129-0.53 125.21" stroke="rgba(51,121,194,0.58)" stroke-width="2"></path><path d="M1016.24-53.93C926.25-53.59 939.5 12.7 663.13 16.05 386.76 19.4 143.87 258.95-43.09 262.45" stroke="rgba(51,121,194,0.58)" stroke-width="2"></path><path d="M1033.89-5.25C911.5 10.37 843.85 287.47 638.17 289.64 432.49 291.81 440.31 219.64 242.45 219.64 44.59 219.64-52.8 289.37-153.27 289.64" stroke="rgba(51,121,194,0.58)" stroke-width="2"></path><path d="M711.56-17.85C542.97 20.39 473.89 464.71 218.56 467.04-36.77 469.37-139.72 253.46-274.44 248.64" stroke="rgba(51,121,194,0.58)" stroke-width="2"></path></g><defs><mask id="SvgjsMask1003"><rect width="1440" height="560" fill="#ffffff"></rect></mask></defs></svg>