<svg xmlns="http://www.w3.org/2000/svg" version="1.1" xmlns:xlink="http://www.w3.org/1999/xlink" xmlns:svgjs="http://svgjs.com/svgjs" width="1440" height="560" preserveAspectRatio="none" viewBox="0 0 1440 560"><g mask="url(&quot;#SvgjsMask1000&quot;)" fill="none"><path d="M636 418L292 762" stroke-width="8" stroke="url(#SvgjsLinearGradient1001)" stroke-linecap="round" class="BottomLeft"></path><path d="M410 30L170 270" stroke-width="10" stroke="url(#SvgjsLinearGradient1002)" stroke-linecap="round" class="TopRight"></path><path d="M73 96L-216 385" stroke-width="8" stroke="url(#SvgjsLinearGradient1002)" stroke-linecap="round" class="TopRight"></path><path d="M1019 553L1162 410" stroke-width="10" stroke="url(#SvgjsLinearGradient1001)" stroke-linecap="round" class="BottomLeft"></path><path d="M513 304L138 679" stroke-width="6" stroke="url(#SvgjsLinearGradient1001)" stroke-linecap="round" class="BottomLeft"></path><path d="M1320 445L1110 655" stroke-width="8" stroke="url(#SvgjsLinearGradient1001)" stroke-linecap="round" class="BottomLeft"></path><path d="M1116 317L784 649" stroke-width="8" stroke="url(#SvgjsLinearGradient1002)" stroke-linecap="round" class="TopRight"></path><path d="M597 142L842 -103" stroke-width="10" stroke="url(#SvgjsLinearGradient1002)" stroke-linecap="round" class="TopRight"></path><path d="M172 494L-219 885" stroke-width="10" stroke="url(#SvgjsLinearGradient1001)" stroke-linecap="round" class="BottomLeft"></path><path d="M641 293L323 611" stroke-width="8" stroke="url(#SvgjsLinearGradient1002)" stroke-linecap="round" class="TopRight"></path><path d="M393 510L733 170" stroke-width="6" stroke="url(#SvgjsLinearGradient1001)" stroke-linecap="round" class="BottomLeft"></path><path d="M177 485L446 216" stroke-width="6" stroke="url(#SvgjsLinearGradient1002)" stroke-linecap="round" class="TopRight"></path><path d="M1284 452L1524 212" stroke-width="10" stroke="url(#SvgjsLinearGradient1001)" stroke-linecap="round" class="BottomLeft"></path><path d="M487 46L189 344" stroke-width="6" stroke="url(#SvgjsLinearGradient1002)" stroke-linecap="round" class="TopRight"></path><path d="M867 473L708 632" stroke-width="6" stroke="url(#SvgjsLinearGradient1002)" stroke-linecap="round" class="TopRight"></path><path d="M1235 388L1381 242" stroke-width="6" stroke="url(#SvgjsLinearGradient1002)" stroke-linecap="round" class="TopRight"></path><path d="M966 280L1380 -134" stroke-width="6" stroke="url(#SvgjsLinearGradient1002)" stroke-linecap="round" class="TopRight"></path><path d="M681 48L295 434" stroke-width="8" stroke="url(#SvgjsLinearGradient1002)" stroke-linecap="round" class="TopRight"></path><path d="M1248 533L1548 233" stroke-width="10" stroke="url(#SvgjsLinearGradient1001)" stroke-linecap="round" class="BottomLeft"></path><path d="M1424 343L1774 -7" stroke-width="8" stroke="url(#SvgjsLinearGradient1001)" stroke-linecap="round" class="BottomLeft"></path><path d="M330 362L718 -26" stroke-width="8" stroke="url(#SvgjsLinearGradient1001)" stroke-linecap="round" class="BottomLeft"></path><path d="M905 342L546 701" stroke-width="8" stroke="url(#SvgjsLinearGradient1002)" stroke-linecap="round" class="TopRight"></path><path d="M846 122L1114 -146" stroke-width="10" stroke="url(#SvgjsLinearGradient1001)" stroke-linecap="round" class="BottomLeft"></path><path d="M1044 222L734 532" stroke-width="6" stroke="url(#SvgjsLinearGradient1001)" stroke-linecap="round" class="BottomLeft"></path><path d="M692 430L877 245" stroke-width="10" stroke="url(#SvgjsLinearGradient1002)" stroke-linecap="round" class="TopRight"></path><path d="M759 449L414 794" stroke-width="10" stroke="url(#SvgjsLinearGradient1002)" stroke-linecap="round" class="TopRight"></path><path d="M727 37L1061 -297" stroke-width="8" stroke="url(#SvgjsLinearGradient1001)" stroke-linecap="round" class="BottomLeft"></path><path d="M488 138L695 -69" stroke-width="6" stroke="url(#SvgjsLinearGradient1001)" stroke-linecap="round" class="BottomLeft"></path><path d="M19 5L-130 154" stroke-width="10" stroke="url(#SvgjsLinearGradient1001)" stroke-linecap="round" class="BottomLeft"></path><path d="M1115 443L967 591" stroke-width="8" stroke="url(#SvgjsLinearGradient1001)" stroke-linecap="round" class="BottomLeft"></path><path d="M947 534L1353 128" stroke-width="10" stroke="url(#SvgjsLinearGradient1001)" stroke-linecap="round" class="BottomLeft"></path><path d="M506 144L747 -97" stroke-width="10" stroke="url(#SvgjsLinearGradient1002)" stroke-linecap="round" class="TopRight"></path><path d="M1185 284L883 586" stroke-width="10" stroke="url(#SvgjsLinearGradient1001)" stroke-linecap="round" class="BottomLeft"></path><path d="M195 301L513 -17" stroke-width="10" stroke="url(#SvgjsLinearGradient1002)" stroke-linecap="round" class="TopRight"></path><path d="M98 332L-72 502" stroke-width="6" stroke="url(#SvgjsLinearGradient1002)" stroke-linecap="round" class="TopRight"></path><path d="M488 231L329 390" stroke-width="10" stroke="url(#SvgjsLinearGradient1002)" stroke-linecap="round" class="TopRight"></path><path d="M6 444L-143 593" stroke-width="8" stroke="url(#SvgjsLinearGradient1002)" stroke-linecap="round" class="TopRight"></path><path d="M965 118L658 425" stroke-width="6" stroke="url(#SvgjsLinearGradient1002)" stroke-linecap="round" class="TopRight"></path><path d="M570 102L386 286" stroke-width="6" stroke="url(#SvgjsLinearGradient1002)" stroke-linecap="round" class="TopRight"></path></g><defs><mask id="SvgjsMask1000"><rect width="1440" height="560" fill="#ffffff"></rect></mask><linearGradient x1="100%" y1="0%" x2="0%" y2="100%" id="SvgjsLinearGradient1001"><stop stop-color="rgba(28, 83, 142, 0)" offset="0"></stop><stop stop-color="#1c538e" offset="1"></stop></linearGradient><linearGradient x1="0%" y1="100%" x2="100%" y2="0%" id="SvgjsLinearGradient1002"><stop stop-color="rgba(28, 83, 142, 0)" offset="0"></stop><stop stop-color="#1c538e" offset="1"></stop></linearGradient></defs></svg>