<svg id="Layer_1"  xmlns="http://www.w3.org/2000/svg" xmlns:xlink="http://www.w3.org/1999/xlink" viewBox="0 0 476.57 122.07"><defs><style>.logo-cls-1{font-size:53px;font-family:VAGRounded-Bold;font-weight:700;}.logo-cls-2{letter-spacing:-0.02em;}.logo-cls-3{letter-spacing:0em;}.logo-cls-4{fill:#0d263f;}.logo-cls-5,.logo-cls-7{fill:none;}.logo-cls-5{stroke:#132e65;stroke-width:1.5px;}.logo-cls-6{fill:#132e65;}.logo-cls-8{fill:url(#radial-gradient);}.logo-cls-9{fill:url(#radial-gradient-2);}.logo-cls-10{fill:url(#radial-gradient-3);}.logo-cls-11{fill:url(#radial-gradient-4);}.logo-cls-12{fill:url(#radial-gradient-5);}.logo-cls-13{fill:url(#radial-gradient-6);}.logo-cls-14{fill:url(#radial-gradient-7);}.logo-cls-15{fill:url(#radial-gradient-8);}.logo-cls-16{fill:url(#radial-gradient-9);}.logo-cls-17{fill:url(#radial-gradient-10);}.logo-cls-18{fill:url(#radial-gradient-11);}.logo-cls-19{fill:#8b9ad9;}</style><radialGradient id="radial-gradient" cx="2.41" cy="510.08" r="0.14" gradientTransform="matrix(-20.26, 45.71, 45.71, 20.26, -23234.49, -10436.39)" gradientUnits="userSpaceOnUse"><stop offset="0.1" stop-color="#fff"/><stop offset="0.2" stop-color="#1735b3"/><stop offset="1"/></radialGradient><radialGradient id="radial-gradient-2" cx="2" cy="509.72" r="0.14" gradientTransform="matrix(-20.26, 45.71, 45.71, 20.26, -23223.42, -10400.45)" xlink:href="#radial-gradient"/><radialGradient id="radial-gradient-3" cx="1.75" cy="509.68" r="0.14" gradientTransform="matrix(-20.26, 45.71, 45.71, 20.26, -23227.54, -10383.57)" xlink:href="#radial-gradient"/><radialGradient id="radial-gradient-4" cx="0.93" cy="508.77" r="0.14" gradientTransform="matrix(-20.26, 45.71, 45.71, 20.26, -23193.52, -10306.87)" xlink:href="#radial-gradient"/><radialGradient id="radial-gradient-5" cx="0.98" cy="509.12" r="0.14" gradientTransform="matrix(-20.26, 45.71, 45.71, 20.26, -23214.32, -10319.75)" xlink:href="#radial-gradient"/><radialGradient id="radial-gradient-6" cx="0.94" cy="509.69" r="0.14" gradientTransform="matrix(-20.26, 45.71, 45.71, 20.26, -23250.86, -10333.17)" xlink:href="#radial-gradient"/><radialGradient id="radial-gradient-7" cx="0.77" cy="508.71" r="0.14" gradientTransform="matrix(-20.26, 45.71, 45.71, 20.26, -23194.54, -10295.6)" xlink:href="#radial-gradient"/><radialGradient id="radial-gradient-8" cx="0.78" cy="509.09" r="0.14" gradientTransform="matrix(-20.26, 45.71, 45.71, 20.26, -23218.12, -10306.58)" xlink:href="#radial-gradient"/><radialGradient id="radial-gradient-9" cx="0.76" cy="510.15" r="0.14" gradientTransform="matrix(-20.26, 45.71, 45.71, 20.26, -23284.88, -10334.6)" xlink:href="#radial-gradient"/><radialGradient id="radial-gradient-10" cx="0.61" cy="509.69" r="0.14" gradientTransform="matrix(-20.26, 45.71, 45.71, 20.26, -23259.9, -10312.28)" xlink:href="#radial-gradient"/><radialGradient id="radial-gradient-11" cx="0.57" cy="509.95" r="0.14" gradientTransform="matrix(-20.26, 45.71, 45.71, 20.26, -23277.79, -10317.07)" xlink:href="#radial-gradient"/></defs><text class="logo-cls-1" transform="translate(91.79 46.92)">Nec<tspan class="logo-cls-2" x="89.3" y="0">r</tspan><tspan class="logo-cls-3" x="106" y="0">oFunda:</tspan><tspan x="-91.79" y="63.6">Dominion Campaign</tspan></text><polygon class="logo-cls-4" points="43.96 60.49 13.71 51.7 4.93 21.46 26.39 0 56.63 8.79 65.42 39.03 43.96 60.49"/><path class="logo-cls-5" d="M58.9,180.84h0" transform="translate(-17.94 -164.87)"/><path class="logo-cls-5" d="M58.9,180.84l-2.79-1.41" transform="translate(-17.94 -164.87)"/><path class="logo-cls-5" d="M58.9,180.84l-4.36,2.55" transform="translate(-17.94 -164.87)"/><path class="logo-cls-5" d="M56.11,179.43h0" transform="translate(-17.94 -164.87)"/><path class="logo-cls-5" d="M56.11,179.43l-1.57,4" transform="translate(-17.94 -164.87)"/><path class="logo-cls-5" d="M56.11,179.43,51.65,178" transform="translate(-17.94 -164.87)"/><path class="logo-cls-5" d="M51.65,178h0" transform="translate(-17.94 -164.87)"/><path class="logo-cls-5" d="M51.65,178,50,175.61" transform="translate(-17.94 -164.87)"/><path class="logo-cls-5" d="M51.65,178l-1.42,3.19" transform="translate(-17.94 -164.87)"/><path class="logo-cls-5" d="M50,175.61h0" transform="translate(-17.94 -164.87)"/><path class="logo-cls-5" d="M50,175.61l-2.84,4.44" transform="translate(-17.94 -164.87)"/><path class="logo-cls-5" d="M54.54,183.39h0" transform="translate(-17.94 -164.87)"/><path class="logo-cls-5" d="M54.54,183.39l-2.43,2.78" transform="translate(-17.94 -164.87)"/><path class="logo-cls-5" d="M54.54,183.39,56.42,187" transform="translate(-17.94 -164.87)"/><path class="logo-cls-5" d="M54.54,183.39l-4.31-2.19" transform="translate(-17.94 -164.87)"/><path class="logo-cls-5" d="M50.23,181.2h0" transform="translate(-17.94 -164.87)"/><path class="logo-cls-5" d="M50.23,181.2l-3.06-1.15" transform="translate(-17.94 -164.87)"/><path class="logo-cls-5" d="M47.17,180.05h0" transform="translate(-17.94 -164.87)"/><path class="logo-cls-5" d="M47.17,180.05l-1.72,2.56" transform="translate(-17.94 -164.87)"/><path class="logo-cls-5" d="M56.42,187h0" transform="translate(-17.94 -164.87)"/><path class="logo-cls-5" d="M56.42,187l-2.22,3" transform="translate(-17.94 -164.87)"/><path class="logo-cls-5" d="M56.42,187l-4.31-.8" transform="translate(-17.94 -164.87)"/><path class="logo-cls-5" d="M56.42,187l-4.63,2.71" transform="translate(-17.94 -164.87)"/><path class="logo-cls-5" d="M52.11,186.17h0" transform="translate(-17.94 -164.87)"/><path class="logo-cls-5" d="M52.11,186.17l-.32,3.51" transform="translate(-17.94 -164.87)"/><path class="logo-cls-5" d="M52.11,186.17l-3.41-1.3" transform="translate(-17.94 -164.87)"/><path class="logo-cls-5" d="M52.11,186.17,54.2,190" transform="translate(-17.94 -164.87)"/><path class="logo-cls-5" d="M48.7,184.87h0" transform="translate(-17.94 -164.87)"/><path class="logo-cls-5" d="M48.7,184.87l-1.46,2.34" transform="translate(-17.94 -164.87)"/><path class="logo-cls-5" d="M48.7,184.87l-3.25-2.26" transform="translate(-17.94 -164.87)"/><path class="logo-cls-5" d="M48.7,184.87l1.53-3.67" transform="translate(-17.94 -164.87)"/><path class="logo-cls-5" d="M48.7,184.87l-4.43.69" transform="translate(-17.94 -164.87)"/><path class="logo-cls-5" d="M48.7,184.87l-1.53-4.82" transform="translate(-17.94 -164.87)"/><path class="logo-cls-5" d="M45.45,182.61h0" transform="translate(-17.94 -164.87)"/><path class="logo-cls-5" d="M45.45,182.61l-1.18,2.95" transform="translate(-17.94 -164.87)"/><path class="logo-cls-5" d="M45.45,182.61l1.79,4.6" transform="translate(-17.94 -164.87)"/><path class="logo-cls-5" d="M45.45,182.61l4.78-1.41" transform="translate(-17.94 -164.87)"/><path class="logo-cls-5" d="M54.2,190h0" transform="translate(-17.94 -164.87)"/><path class="logo-cls-5" d="M54.2,190l-2.41-.32" transform="translate(-17.94 -164.87)"/><path class="logo-cls-5" d="M54.2,190l-1.93,4" transform="translate(-17.94 -164.87)"/><path class="logo-cls-5" d="M51.79,189.68h0" transform="translate(-17.94 -164.87)"/><path class="logo-cls-5" d="M51.79,189.68l-2.4,2.72" transform="translate(-17.94 -164.87)"/><path class="logo-cls-5" d="M51.79,189.68l.48,4.32" transform="translate(-17.94 -164.87)"/><path class="logo-cls-5" d="M47.24,187.21h0" transform="translate(-17.94 -164.87)"/><path class="logo-cls-5" d="M47.24,187.21l-3-1.65" transform="translate(-17.94 -164.87)"/><path class="logo-cls-5" d="M47.24,187.21l-1,3.56" transform="translate(-17.94 -164.87)"/><path class="logo-cls-5" d="M47.24,187.21l4.87-1" transform="translate(-17.94 -164.87)"/><path class="logo-cls-5" d="M47.24,187.21l4.55,2.47" transform="translate(-17.94 -164.87)"/><path class="logo-cls-5" d="M44.27,185.56h0" transform="translate(-17.94 -164.87)"/><path class="logo-cls-5" d="M44.27,185.56l-1.48,4.63" transform="translate(-17.94 -164.87)"/><path class="logo-cls-5" d="M44.27,185.56l2,5.21" transform="translate(-17.94 -164.87)"/><path class="logo-cls-5" d="M44.27,185.56l2.9-5.51" transform="translate(-17.94 -164.87)"/><path class="logo-cls-5" d="M56.67,194.78h0" transform="translate(-17.94 -164.87)"/><path class="logo-cls-5" d="M56.67,194.78l-4.4-.78" transform="translate(-17.94 -164.87)"/><path class="logo-cls-5" d="M56.67,194.78l-1.28,4.85" transform="translate(-17.94 -164.87)"/><path class="logo-cls-5" d="M56.67,194.78,54.2,190" transform="translate(-17.94 -164.87)"/><path class="logo-cls-5" d="M56.67,194.78l-4.51,3.31" transform="translate(-17.94 -164.87)"/><path class="logo-cls-5" d="M52.27,194h0" transform="translate(-17.94 -164.87)"/><path class="logo-cls-5" d="M52.27,194l-2.88-1.6" transform="translate(-17.94 -164.87)"/><path class="logo-cls-5" d="M52.27,194l-.11,4.09" transform="translate(-17.94 -164.87)"/><path class="logo-cls-5" d="M49.39,192.4h0" transform="translate(-17.94 -164.87)"/><path class="logo-cls-5" d="M49.39,192.4l-1.48,3.07" transform="translate(-17.94 -164.87)"/><path class="logo-cls-5" d="M49.39,192.4l-3.16-1.63" transform="translate(-17.94 -164.87)"/><path class="logo-cls-5" d="M49.39,192.4l-4.32,2.2" transform="translate(-17.94 -164.87)"/><path class="logo-cls-5" d="M49.39,192.4,54.2,190" transform="translate(-17.94 -164.87)"/><path class="logo-cls-5" d="M46.23,190.77h0" transform="translate(-17.94 -164.87)"/><path class="logo-cls-5" d="M46.23,190.77l-3.44-.58" transform="translate(-17.94 -164.87)"/><path class="logo-cls-5" d="M42.79,190.19h0" transform="translate(-17.94 -164.87)"/><path class="logo-cls-5" d="M42.79,190.19l-.64,3.13" transform="translate(-17.94 -164.87)"/><path class="logo-cls-5" d="M58.15,200.26h0" transform="translate(-17.94 -164.87)"/><path class="logo-cls-5" d="M58.15,200.26l-2.76-.63" transform="translate(-17.94 -164.87)"/><path class="logo-cls-5" d="M58.15,200.26l-1.07,3" transform="translate(-17.94 -164.87)"/><path class="logo-cls-5" d="M58.15,200.26l-4,2" transform="translate(-17.94 -164.87)"/><path class="logo-cls-5" d="M55.39,199.63h0" transform="translate(-17.94 -164.87)"/><path class="logo-cls-5" d="M55.39,199.63l-1.23,2.59" transform="translate(-17.94 -164.87)"/><path class="logo-cls-5" d="M55.39,199.63l-3.23-1.54" transform="translate(-17.94 -164.87)"/><path class="logo-cls-5" d="M55.39,199.63l1.69,3.65" transform="translate(-17.94 -164.87)"/><path class="logo-cls-5" d="M55.39,199.63l-4.76.38" transform="translate(-17.94 -164.87)"/><path class="logo-cls-5" d="M52.16,198.09h0" transform="translate(-17.94 -164.87)"/><path class="logo-cls-5" d="M52.16,198.09,50.63,200" transform="translate(-17.94 -164.87)"/><path class="logo-cls-5" d="M47.91,195.47h0" transform="translate(-17.94 -164.87)"/><path class="logo-cls-5" d="M47.91,195.47l-2.84-.87" transform="translate(-17.94 -164.87)"/><path class="logo-cls-5" d="M47.91,195.47l-2.19,3.89" transform="translate(-17.94 -164.87)"/><path class="logo-cls-5" d="M47.91,195.47,52.27,194" transform="translate(-17.94 -164.87)"/><path class="logo-cls-5" d="M47.91,195.47l-1.68-4.7" transform="translate(-17.94 -164.87)"/><path class="logo-cls-5" d="M45.07,194.6h0" transform="translate(-17.94 -164.87)"/><path class="logo-cls-5" d="M45.07,194.6l-2.92-1.28" transform="translate(-17.94 -164.87)"/><path class="logo-cls-5" d="M45.07,194.6l-2.29,3.28" transform="translate(-17.94 -164.87)"/><path class="logo-cls-5" d="M42.15,193.32h0" transform="translate(-17.94 -164.87)"/><path class="logo-cls-5" d="M42.15,193.32l.63,4.56" transform="translate(-17.94 -164.87)"/><path class="logo-cls-5" d="M42.15,193.32l-3.29,3.37" transform="translate(-17.94 -164.87)"/><path class="logo-cls-5" d="M42.15,193.32l4.08-2.55" transform="translate(-17.94 -164.87)"/><path class="logo-cls-5" d="M63.57,206.89h0" transform="translate(-17.94 -164.87)"/><path class="logo-cls-5" d="M63.57,206.89,61.42,210" transform="translate(-17.94 -164.87)"/><path class="logo-cls-5" d="M63.57,206.89l-3.77-1.51" transform="translate(-17.94 -164.87)"/><path class="logo-cls-5" d="M59.8,205.38h0" transform="translate(-17.94 -164.87)"/><path class="logo-cls-5" d="M59.8,205.38l-.65,2.6" transform="translate(-17.94 -164.87)"/><path class="logo-cls-5" d="M59.8,205.38l-2.72-2.1" transform="translate(-17.94 -164.87)"/><path class="logo-cls-5" d="M59.8,205.38,56,207.49" transform="translate(-17.94 -164.87)"/><path class="logo-cls-5" d="M59.8,205.38,61.42,210" transform="translate(-17.94 -164.87)"/><path class="logo-cls-5" d="M57.08,203.28h0" transform="translate(-17.94 -164.87)"/><path class="logo-cls-5" d="M57.08,203.28l-2.92-1.06" transform="translate(-17.94 -164.87)"/><path class="logo-cls-5" d="M54.16,202.22h0" transform="translate(-17.94 -164.87)"/><path class="logo-cls-5" d="M54.16,202.22,50.63,200" transform="translate(-17.94 -164.87)"/><path class="logo-cls-5" d="M54.16,202.22l-2-4.13" transform="translate(-17.94 -164.87)"/><path class="logo-cls-5" d="M50.63,200h0" transform="translate(-17.94 -164.87)"/><path class="logo-cls-5" d="M45.72,199.36h0" transform="translate(-17.94 -164.87)"/><path class="logo-cls-5" d="M45.72,199.36l-.16,3.22" transform="translate(-17.94 -164.87)"/><path class="logo-cls-5" d="M45.72,199.36l-2.94-1.48" transform="translate(-17.94 -164.87)"/><path class="logo-cls-5" d="M42.78,197.88h0" transform="translate(-17.94 -164.87)"/><path class="logo-cls-5" d="M42.78,197.88,39,199.07" transform="translate(-17.94 -164.87)"/><path class="logo-cls-5" d="M38.86,196.69h0" transform="translate(-17.94 -164.87)"/><path class="logo-cls-5" d="M38.86,196.69l.11,2.38" transform="translate(-17.94 -164.87)"/><path class="logo-cls-5" d="M38.86,196.69l3.92,1.19" transform="translate(-17.94 -164.87)"/><path class="logo-cls-5" d="M61.42,210h0" transform="translate(-17.94 -164.87)"/><path class="logo-cls-5" d="M61.42,210l-2.27-2" transform="translate(-17.94 -164.87)"/><path class="logo-cls-5" d="M61.42,210l-3.8,3.14" transform="translate(-17.94 -164.87)"/><path class="logo-cls-5" d="M59.15,208h0" transform="translate(-17.94 -164.87)"/><path class="logo-cls-5" d="M59.15,208,56,207.49" transform="translate(-17.94 -164.87)"/><path class="logo-cls-5" d="M59.15,208l4.42-1.09" transform="translate(-17.94 -164.87)"/><path class="logo-cls-5" d="M59.15,208l-2.07-4.7" transform="translate(-17.94 -164.87)"/><path class="logo-cls-5" d="M59.15,208l-1.53,5.13" transform="translate(-17.94 -164.87)"/><path class="logo-cls-5" d="M56,207.49h0" transform="translate(-17.94 -164.87)"/><path class="logo-cls-5" d="M56,207.49l-2.13,2.83" transform="translate(-17.94 -164.87)"/><path class="logo-cls-5" d="M50.85,205.9h0" transform="translate(-17.94 -164.87)"/><path class="logo-cls-5" d="M50.85,205.9,50,208.44" transform="translate(-17.94 -164.87)"/><path class="logo-cls-5" d="M50.85,205.9l-2.41-1.21" transform="translate(-17.94 -164.87)"/><path class="logo-cls-5" d="M50.85,205.9l-3.54,2" transform="translate(-17.94 -164.87)"/><path class="logo-cls-5" d="M50.85,205.9l3.31-3.68" transform="translate(-17.94 -164.87)"/><path class="logo-cls-5" d="M50.85,205.9l3.06,4.42" transform="translate(-17.94 -164.87)"/><path class="logo-cls-5" d="M50.85,205.9,56,207.49" transform="translate(-17.94 -164.87)"/><path class="logo-cls-5" d="M48.44,204.69h0" transform="translate(-17.94 -164.87)"/><path class="logo-cls-5" d="M48.44,204.69l-1.13,3.19" transform="translate(-17.94 -164.87)"/><path class="logo-cls-5" d="M45.56,202.58h0" transform="translate(-17.94 -164.87)"/><path class="logo-cls-5" d="M41.05,201.62h0" transform="translate(-17.94 -164.87)"/><path class="logo-cls-5" d="M41.05,201.62l.1,2.53" transform="translate(-17.94 -164.87)"/><path class="logo-cls-5" d="M41.05,201.62l-3.09,1" transform="translate(-17.94 -164.87)"/><path class="logo-cls-5" d="M39,199.07h0" transform="translate(-17.94 -164.87)"/><path class="logo-cls-5" d="M39,199.07l2.08,2.55" transform="translate(-17.94 -164.87)"/><path class="logo-cls-5" d="M57.62,213.11h0" transform="translate(-17.94 -164.87)"/><path class="logo-cls-5" d="M57.62,213.11l-1.91,2.63" transform="translate(-17.94 -164.87)"/><path class="logo-cls-5" d="M57.62,213.11l-4.48.3" transform="translate(-17.94 -164.87)"/><path class="logo-cls-5" d="M57.62,213.11l2.13,4.13" transform="translate(-17.94 -164.87)"/><path class="logo-cls-5" d="M57.62,213.11l-3.71-2.79" transform="translate(-17.94 -164.87)"/><path class="logo-cls-5" d="M53.91,210.32h0" transform="translate(-17.94 -164.87)"/><path class="logo-cls-5" d="M53.91,210.32l-.77,3.09" transform="translate(-17.94 -164.87)"/><path class="logo-cls-5" d="M53.91,210.32l-4.06,1.5" transform="translate(-17.94 -164.87)"/><path class="logo-cls-5" d="M53.91,210.32,50,208.44" transform="translate(-17.94 -164.87)"/><path class="logo-cls-5" d="M50,208.44h0" transform="translate(-17.94 -164.87)"/><path class="logo-cls-5" d="M50,208.44l-2.67-.56" transform="translate(-17.94 -164.87)"/><path class="logo-cls-5" d="M50,208.44l-.13,3.38" transform="translate(-17.94 -164.87)"/><path class="logo-cls-5" d="M50,208.44l-1.54-3.75" transform="translate(-17.94 -164.87)"/><path class="logo-cls-5" d="M50,208.44l-4.3,1.75" transform="translate(-17.94 -164.87)"/><path class="logo-cls-5" d="M47.31,207.88h0" transform="translate(-17.94 -164.87)"/><path class="logo-cls-5" d="M47.31,207.88l-1.63,2.31" transform="translate(-17.94 -164.87)"/><path class="logo-cls-5" d="M47.31,207.88l-3.86-1.17" transform="translate(-17.94 -164.87)"/><path class="logo-cls-5" d="M43.45,206.71h0" transform="translate(-17.94 -164.87)"/><path class="logo-cls-5" d="M43.45,206.71l-2.3-2.56" transform="translate(-17.94 -164.87)"/><path class="logo-cls-5" d="M43.45,206.71,41.55,210" transform="translate(-17.94 -164.87)"/><path class="logo-cls-5" d="M41.15,204.15h0" transform="translate(-17.94 -164.87)"/><path class="logo-cls-5" d="M41.15,204.15,38,202.62" transform="translate(-17.94 -164.87)"/><path class="logo-cls-5" d="M41.15,204.15l4.41-1.57" transform="translate(-17.94 -164.87)"/><path class="logo-cls-5" d="M41.15,204.15,38,207.74" transform="translate(-17.94 -164.87)"/><path class="logo-cls-5" d="M41.15,204.15,39,199.07" transform="translate(-17.94 -164.87)"/><path class="logo-cls-5" d="M38,202.62h0" transform="translate(-17.94 -164.87)"/><path class="logo-cls-5" d="M38,202.62l1-3.55" transform="translate(-17.94 -164.87)"/><path class="logo-cls-5" d="M38,202.62l-2.61,3.78" transform="translate(-17.94 -164.87)"/><path class="logo-cls-5" d="M38,202.62v5.12" transform="translate(-17.94 -164.87)"/><path class="logo-cls-5" d="M59.75,217.24h0" transform="translate(-17.94 -164.87)"/><path class="logo-cls-5" d="M59.75,217.24l-4-1.5" transform="translate(-17.94 -164.87)"/><path class="logo-cls-5" d="M59.75,217.24,61.42,210" transform="translate(-17.94 -164.87)"/><path class="logo-cls-5" d="M59.75,217.24l-6.61-3.83" transform="translate(-17.94 -164.87)"/><path class="logo-cls-5" d="M59.75,217.24l-5.84-6.92" transform="translate(-17.94 -164.87)"/><path class="logo-cls-5" d="M59.75,217.24l-.6-9.26" transform="translate(-17.94 -164.87)"/><path class="logo-cls-5" d="M55.71,215.74h0" transform="translate(-17.94 -164.87)"/><path class="logo-cls-5" d="M55.71,215.74l-2.57-2.33" transform="translate(-17.94 -164.87)"/><path class="logo-cls-5" d="M55.71,215.74l-1.8-5.42" transform="translate(-17.94 -164.87)"/><path class="logo-cls-5" d="M53.14,213.41h0" transform="translate(-17.94 -164.87)"/><path class="logo-cls-5" d="M49.85,211.82h0" transform="translate(-17.94 -164.87)"/><path class="logo-cls-5" d="M49.85,211.82l3.29,1.59" transform="translate(-17.94 -164.87)"/><path class="logo-cls-5" d="M45.68,210.19h0" transform="translate(-17.94 -164.87)"/><path class="logo-cls-5" d="M45.68,210.19l-2.23-3.48" transform="translate(-17.94 -164.87)"/><path class="logo-cls-5" d="M41.55,210h0" transform="translate(-17.94 -164.87)"/><path class="logo-cls-5" d="M41.55,210l4.13.23" transform="translate(-17.94 -164.87)"/><path class="logo-cls-5" d="M38,207.74h0" transform="translate(-17.94 -164.87)"/><path class="logo-cls-5" d="M38,207.74l-2.61-1.34" transform="translate(-17.94 -164.87)"/><path class="logo-cls-5" d="M38,207.74,41.55,210" transform="translate(-17.94 -164.87)"/><path class="logo-cls-5" d="M38,207.74l5.49-1" transform="translate(-17.94 -164.87)"/><path class="logo-cls-5" d="M35.35,206.4h0" transform="translate(-17.94 -164.87)"/><path class="logo-cls-5" d="M35.35,206.4l5.8-2.25" transform="translate(-17.94 -164.87)"/><path class="logo-cls-5" d="M35.35,206.4l6.2,3.56" transform="translate(-17.94 -164.87)"/><path class="logo-cls-5" d="M35.35,206.4l5.7-4.78" transform="translate(-17.94 -164.87)"/><circle class="logo-cls-6" cx="40.96" cy="15.97" r="1.35"/><circle class="logo-cls-6" cx="38.17" cy="14.56" r="1.35"/><circle class="logo-cls-6" cx="33.71" cy="13.14" r="1.35"/><circle class="logo-cls-6" cx="32.07" cy="10.74" r="1.35"/><circle class="logo-cls-6" cx="36.6" cy="18.52" r="1.35"/><circle class="logo-cls-6" cx="32.29" cy="16.33" r="1.35"/><circle class="logo-cls-6" cx="29.23" cy="15.18" r="1.35"/><circle class="logo-cls-6" cx="38.48" cy="22.1" r="1.35"/><circle class="logo-cls-6" cx="34.17" cy="21.3" r="1.35"/><circle class="logo-cls-6" cx="30.76" cy="20" r="1.35"/><circle class="logo-cls-6" cx="27.51" cy="17.74" r="1.35"/><circle class="logo-cls-6" cx="36.26" cy="25.14" r="1.35"/><circle class="logo-cls-6" cx="33.85" cy="24.81" r="1.35"/><circle class="logo-cls-6" cx="29.3" cy="22.34" r="1.35"/><circle class="logo-cls-6" cx="26.33" cy="20.69" r="1.35"/><circle class="logo-cls-6" cx="38.73" cy="29.92" r="1.35"/><circle class="logo-cls-6" cx="34.33" cy="29.13" r="1.35"/><circle class="logo-cls-6" cx="31.45" cy="27.53" r="1.35"/><circle class="logo-cls-6" cx="28.29" cy="25.9" r="1.35"/><circle class="logo-cls-6" cx="24.85" cy="25.33" r="1.35"/><circle class="logo-cls-6" cx="40.21" cy="35.39" r="1.35"/><circle class="logo-cls-6" cx="37.45" cy="34.76" r="1.35"/><circle class="logo-cls-6" cx="34.22" cy="33.22" r="1.35"/><circle class="logo-cls-6" cx="29.97" cy="30.6" r="1.35"/><circle class="logo-cls-6" cx="27.13" cy="29.73" r="1.35"/><circle class="logo-cls-6" cx="24.21" cy="28.45" r="1.35"/><circle class="logo-cls-6" cx="45.63" cy="42.02" r="1.35"/><circle class="logo-cls-6" cx="41.86" cy="40.51" r="1.35"/><circle class="logo-cls-6" cx="39.14" cy="38.41" r="1.35"/><circle class="logo-cls-6" cx="36.22" cy="37.35" r="1.35"/><circle class="logo-cls-6" cx="32.69" cy="35.15" r="1.35"/><circle class="logo-cls-6" cx="27.78" cy="34.49" r="1.35"/><circle class="logo-cls-6" cx="24.84" cy="33.02" r="1.35"/><circle class="logo-cls-6" cx="20.92" cy="31.82" r="1.35"/><circle class="logo-cls-6" cx="43.48" cy="45.1" r="1.35"/><circle class="logo-cls-6" cx="41.21" cy="43.12" r="1.35"/><circle class="logo-cls-6" cx="38.1" cy="42.62" r="1.35"/><circle class="logo-cls-6" cx="32.91" cy="41.03" r="1.35"/><circle class="logo-cls-6" cx="30.5" cy="39.82" r="1.35"/><circle class="logo-cls-6" cx="27.62" cy="37.71" r="1.35"/><circle class="logo-cls-6" cx="23.11" cy="36.75" r="1.35"/><circle class="logo-cls-6" cx="21.03" cy="34.2" r="1.35"/><circle class="logo-cls-6" cx="39.68" cy="48.25" r="1.35"/><circle class="logo-cls-6" cx="35.97" cy="45.45" r="1.35"/><circle class="logo-cls-6" cx="32.04" cy="43.57" r="1.35"/><circle class="logo-cls-6" cx="29.37" cy="43.01" r="1.35"/><circle class="logo-cls-6" cx="25.51" cy="41.84" r="1.35"/><circle class="logo-cls-6" cx="23.21" cy="39.28" r="1.35"/><circle class="logo-cls-6" cx="20.02" cy="37.76" r="1.35"/><circle class="logo-cls-6" cx="41.81" cy="52.37" r="1.35"/><circle class="logo-cls-6" cx="37.77" cy="50.87" r="1.35"/><circle class="logo-cls-6" cx="35.2" cy="48.54" r="1.35"/><circle class="logo-cls-6" cx="31.91" cy="46.95" r="1.35"/><circle class="logo-cls-6" cx="27.74" cy="45.32" r="1.35"/><circle class="logo-cls-6" cx="23.61" cy="45.09" r="1.35"/><circle class="logo-cls-6" cx="20.02" cy="42.87" r="1.35"/><circle class="logo-cls-6" cx="17.41" cy="41.53" r="1.35"/><path class="logo-cls-7" d="M49.9,175.55h0" transform="translate(-17.94 -164.87)"/><path class="logo-cls-7" d="M49.9,175.55l2.44,2.29" transform="translate(-17.94 -164.87)"/><path class="logo-cls-7" d="M49.9,175.55,47,179.64" transform="translate(-17.94 -164.87)"/><path class="logo-cls-7" d="M52.89,185.27h0" transform="translate(-17.94 -164.87)"/><path class="logo-cls-7" d="M52.89,185.27l-1.28-4.07" transform="translate(-17.94 -164.87)"/><path class="logo-cls-7" d="M52.89,185.27,48.69,184" transform="translate(-17.94 -164.87)"/><path class="logo-cls-7" d="M52.89,185.27l-1.11,4.57" transform="translate(-17.94 -164.87)"/><path class="logo-cls-7" d="M51.78,189.84h0" transform="translate(-17.94 -164.87)"/><path class="logo-cls-7" d="M51.78,189.84l-1.88,3.47" transform="translate(-17.94 -164.87)"/><path class="logo-cls-7" d="M51.78,189.84l-4.26-2.21" transform="translate(-17.94 -164.87)"/><path class="logo-cls-7" d="M61,210.59h0" transform="translate(-17.94 -164.87)"/><path class="logo-cls-7" d="M61,210.59l-1.71-1.27" transform="translate(-17.94 -164.87)"/><path class="logo-cls-7" d="M61,210.59l-.27,3" transform="translate(-17.94 -164.87)"/><path class="logo-cls-7" d="M55.35,207.11h0" transform="translate(-17.94 -164.87)"/><path class="logo-cls-7" d="M55.35,207.11l-1,3.56" transform="translate(-17.94 -164.87)"/><path class="logo-cls-7" d="M55.35,207.11,51.52,205" transform="translate(-17.94 -164.87)"/><path class="logo-cls-7" d="M55.35,207.11l3.92,2.21" transform="translate(-17.94 -164.87)"/><path class="logo-cls-7" d="M55.35,207.11,57,211.62" transform="translate(-17.94 -164.87)"/><path class="logo-cls-7" d="M55.35,207.11,50.7,209" transform="translate(-17.94 -164.87)"/><path class="logo-cls-7" d="M55.35,207.11l-2.08-5.67" transform="translate(-17.94 -164.87)"/><path class="logo-cls-7" d="M45.47,203.48h0" transform="translate(-17.94 -164.87)"/><path class="logo-cls-7" d="M45.47,203.48l-1.25,2.07" transform="translate(-17.94 -164.87)"/><path class="logo-cls-7" d="M45.47,203.48l3.15-.2" transform="translate(-17.94 -164.87)"/><path class="logo-cls-7" d="M60.71,213.64h0" transform="translate(-17.94 -164.87)"/><path class="logo-cls-7" d="M60.71,213.64l-2.27,2.79" transform="translate(-17.94 -164.87)"/><path class="logo-cls-7" d="M60.71,213.64l-3.75-2" transform="translate(-17.94 -164.87)"/><path class="logo-cls-7" d="M60.71,213.64l-1.44-4.32" transform="translate(-17.94 -164.87)"/><path class="logo-cls-7" d="M60.71,213.64l-4.66,1.79" transform="translate(-17.94 -164.87)"/><path class="logo-cls-7" d="M54.33,210.67h0" transform="translate(-17.94 -164.87)"/><path class="logo-cls-7" d="M54.33,210.67l2.63,1" transform="translate(-17.94 -164.87)"/><path class="logo-cls-7" d="M54.33,210.67l-2.2,2.52" transform="translate(-17.94 -164.87)"/><path class="logo-cls-7" d="M54.33,210.67,50.7,209" transform="translate(-17.94 -164.87)"/><path class="logo-cls-7" d="M54.33,210.67l1.72,4.76" transform="translate(-17.94 -164.87)"/><path class="logo-cls-7" d="M36.26,203.09h0" transform="translate(-17.94 -164.87)"/><path class="logo-cls-7" d="M36.26,203.09l1.35-3.56" transform="translate(-17.94 -164.87)"/><path class="logo-cls-7" d="M36.26,203.09,36,206.9" transform="translate(-17.94 -164.87)"/><path class="logo-cls-7" d="M36.26,203.09l3.9,2.22" transform="translate(-17.94 -164.87)"/><path class="logo-cls-7" d="M36.26,203.09l4.55-1.45" transform="translate(-17.94 -164.87)"/><path class="logo-cls-7" d="M43,209.13h0" transform="translate(-17.94 -164.87)"/><path class="logo-cls-7" d="M43,209.13l1.2-3.58" transform="translate(-17.94 -164.87)"/><path class="logo-cls-7" d="M43,209.13l3.63,1.56" transform="translate(-17.94 -164.87)"/><path class="logo-cls-7" d="M38.18,207.83h0" transform="translate(-17.94 -164.87)"/><path class="logo-cls-7" d="M38.18,207.83,36,206.9" transform="translate(-17.94 -164.87)"/><path class="logo-cls-7" d="M38.18,207.83l2-2.52" transform="translate(-17.94 -164.87)"/><path class="logo-cls-7" d="M38.18,207.83l4.84,1.3" transform="translate(-17.94 -164.87)"/><path class="logo-cls-7" d="M38.18,207.83l-1.92-4.74" transform="translate(-17.94 -164.87)"/><path class="logo-cls-7" d="M38.18,207.83l6-2.28" transform="translate(-17.94 -164.87)"/><path class="logo-cls-7" d="M55.58,178.12h0" transform="translate(-17.94 -164.87)"/><path class="logo-cls-7" d="M55.58,178.12l-3.24-.28" transform="translate(-17.94 -164.87)"/><path class="logo-cls-7" d="M55.58,178.12l-4,3.08" transform="translate(-17.94 -164.87)"/><path class="logo-cls-7" d="M52.34,177.84h0" transform="translate(-17.94 -164.87)"/><path class="logo-cls-7" d="M52.34,177.84l-.73,3.36" transform="translate(-17.94 -164.87)"/><path class="logo-cls-7" d="M52.34,177.84,47,179.64" transform="translate(-17.94 -164.87)"/><path class="logo-cls-7" d="M52.34,177.84,48.69,184" transform="translate(-17.94 -164.87)"/><path class="logo-cls-7" d="M52.34,177.84l.55,7.43" transform="translate(-17.94 -164.87)"/><path class="logo-cls-7" d="M51.61,181.2h0" transform="translate(-17.94 -164.87)"/><path class="logo-cls-7" d="M51.61,181.2,48.69,184" transform="translate(-17.94 -164.87)"/><path class="logo-cls-7" d="M51.61,181.2,47,179.64" transform="translate(-17.94 -164.87)"/><path class="logo-cls-7" d="M47,179.64h0" transform="translate(-17.94 -164.87)"/><path class="logo-cls-7" d="M47,179.64,45.22,183" transform="translate(-17.94 -164.87)"/><path class="logo-cls-7" d="M47,179.64,48.69,184" transform="translate(-17.94 -164.87)"/><path class="logo-cls-7" d="M48.69,184h0" transform="translate(-17.94 -164.87)"/><path class="logo-cls-7" d="M48.69,184l-3.47-1" transform="translate(-17.94 -164.87)"/><path class="logo-cls-7" d="M48.69,184l-1.17,3.68" transform="translate(-17.94 -164.87)"/><path class="logo-cls-7" d="M45.22,183h0" transform="translate(-17.94 -164.87)"/><path class="logo-cls-7" d="M45.22,183l-.74,3" transform="translate(-17.94 -164.87)"/><path class="logo-cls-7" d="M47.52,187.63h0" transform="translate(-17.94 -164.87)"/><path class="logo-cls-7" d="M47.52,187.63l-3-1.62" transform="translate(-17.94 -164.87)"/><path class="logo-cls-7" d="M47.52,187.63,47,191.77" transform="translate(-17.94 -164.87)"/><path class="logo-cls-7" d="M47.52,187.63l-4,1.48" transform="translate(-17.94 -164.87)"/><path class="logo-cls-7" d="M44.48,186h0" transform="translate(-17.94 -164.87)"/><path class="logo-cls-7" d="M44.48,186l-1,3.1" transform="translate(-17.94 -164.87)"/><path class="logo-cls-7" d="M49.9,193.31h0" transform="translate(-17.94 -164.87)"/><path class="logo-cls-7" d="M49.9,193.31l-1.13,2" transform="translate(-17.94 -164.87)"/><path class="logo-cls-7" d="M47,191.77h0" transform="translate(-17.94 -164.87)"/><path class="logo-cls-7" d="M47,191.77l-1.89,2.41" transform="translate(-17.94 -164.87)"/><path class="logo-cls-7" d="M47,191.77l2.93,1.54" transform="translate(-17.94 -164.87)"/><path class="logo-cls-7" d="M43.49,189.11h0" transform="translate(-17.94 -164.87)"/><path class="logo-cls-7" d="M43.49,189.11,42,192.64" transform="translate(-17.94 -164.87)"/><path class="logo-cls-7" d="M50.82,197.71h0" transform="translate(-17.94 -164.87)"/><path class="logo-cls-7" d="M50.82,197.71l.21,2.74" transform="translate(-17.94 -164.87)"/><path class="logo-cls-7" d="M50.82,197.71l-2-2.44" transform="translate(-17.94 -164.87)"/><path class="logo-cls-7" d="M50.82,197.71l2.45,3.73" transform="translate(-17.94 -164.87)"/><path class="logo-cls-7" d="M50.82,197.71l-.92-4.4" transform="translate(-17.94 -164.87)"/><path class="logo-cls-7" d="M50.82,197.71l-2.2,5.57" transform="translate(-17.94 -164.87)"/><path class="logo-cls-7" d="M50.82,197.71l-5.74-3.53" transform="translate(-17.94 -164.87)"/><path class="logo-cls-7" d="M48.77,195.27h0" transform="translate(-17.94 -164.87)"/><path class="logo-cls-7" d="M48.77,195.27l-3.69-1.09" transform="translate(-17.94 -164.87)"/><path class="logo-cls-7" d="M48.77,195.27l-1.8-3.5" transform="translate(-17.94 -164.87)"/><path class="logo-cls-7" d="M48.77,195.27,51,200.45" transform="translate(-17.94 -164.87)"/><path class="logo-cls-7" d="M45.08,194.18h0" transform="translate(-17.94 -164.87)"/><path class="logo-cls-7" d="M45.08,194.18,42,192.64" transform="translate(-17.94 -164.87)"/><path class="logo-cls-7" d="M45.08,194.18l-2.18,3.51" transform="translate(-17.94 -164.87)"/><path class="logo-cls-7" d="M42,192.64h0" transform="translate(-17.94 -164.87)"/><path class="logo-cls-7" d="M53.27,201.44h0" transform="translate(-17.94 -164.87)"/><path class="logo-cls-7" d="M53.27,201.44l-2.24-1" transform="translate(-17.94 -164.87)"/><path class="logo-cls-7" d="M53.27,201.44,51.52,205" transform="translate(-17.94 -164.87)"/><path class="logo-cls-7" d="M53.27,201.44l-4.65,1.84" transform="translate(-17.94 -164.87)"/><path class="logo-cls-7" d="M51,200.45h0" transform="translate(-17.94 -164.87)"/><path class="logo-cls-7" d="M42.9,197.69h0" transform="translate(-17.94 -164.87)"/><path class="logo-cls-7" d="M42.9,197.69l-3.17-1.19" transform="translate(-17.94 -164.87)"/><path class="logo-cls-7" d="M39.73,196.5h0" transform="translate(-17.94 -164.87)"/><path class="logo-cls-7" d="M39.73,196.5l-2.12,3" transform="translate(-17.94 -164.87)"/><path class="logo-cls-7" d="M59.27,209.32h0" transform="translate(-17.94 -164.87)"/><path class="logo-cls-7" d="M59.27,209.32,57,211.62" transform="translate(-17.94 -164.87)"/><path class="logo-cls-7" d="M51.52,205h0" transform="translate(-17.94 -164.87)"/><path class="logo-cls-7" d="M51.52,205l-2.9-1.75" transform="translate(-17.94 -164.87)"/><path class="logo-cls-7" d="M51.52,205,50.7,209" transform="translate(-17.94 -164.87)"/><path class="logo-cls-7" d="M51.52,205,51,200.45" transform="translate(-17.94 -164.87)"/><path class="logo-cls-7" d="M48.62,203.28h0" transform="translate(-17.94 -164.87)"/><path class="logo-cls-7" d="M48.62,203.28,51,200.45" transform="translate(-17.94 -164.87)"/><path class="logo-cls-7" d="M48.62,203.28l-1.44,4.58" transform="translate(-17.94 -164.87)"/><path class="logo-cls-7" d="M40.81,201.64h0" transform="translate(-17.94 -164.87)"/><path class="logo-cls-7" d="M40.81,201.64l-.65,3.67" transform="translate(-17.94 -164.87)"/><path class="logo-cls-7" d="M40.81,201.64l-3.2-2.11" transform="translate(-17.94 -164.87)"/><path class="logo-cls-7" d="M40.81,201.64l2.09-3.95" transform="translate(-17.94 -164.87)"/><path class="logo-cls-7" d="M40.81,201.64l4.66,1.84" transform="translate(-17.94 -164.87)"/><path class="logo-cls-7" d="M40.81,201.64l3.41,3.91" transform="translate(-17.94 -164.87)"/><path class="logo-cls-7" d="M37.61,199.53h0" transform="translate(-17.94 -164.87)"/><path class="logo-cls-7" d="M57,211.62h0" transform="translate(-17.94 -164.87)"/><path class="logo-cls-7" d="M57,211.62l-.91,3.81" transform="translate(-17.94 -164.87)"/><path class="logo-cls-7" d="M57,211.62l4-1" transform="translate(-17.94 -164.87)"/><path class="logo-cls-7" d="M50.7,209h0" transform="translate(-17.94 -164.87)"/><path class="logo-cls-7" d="M50.7,209l-3.52-1.11" transform="translate(-17.94 -164.87)"/><path class="logo-cls-7" d="M50.7,209l-1.84,3.51" transform="translate(-17.94 -164.87)"/><path class="logo-cls-7" d="M47.18,207.86h0" transform="translate(-17.94 -164.87)"/><path class="logo-cls-7" d="M47.18,207.86l-.53,2.83" transform="translate(-17.94 -164.87)"/><path class="logo-cls-7" d="M47.18,207.86l-3-2.31" transform="translate(-17.94 -164.87)"/><path class="logo-cls-7" d="M47.18,207.86,43,209.13" transform="translate(-17.94 -164.87)"/><path class="logo-cls-7" d="M47.18,207.86l-1.71-4.38" transform="translate(-17.94 -164.87)"/><path class="logo-cls-7" d="M44.22,205.55h0" transform="translate(-17.94 -164.87)"/><path class="logo-cls-7" d="M44.22,205.55l-4.06-.24" transform="translate(-17.94 -164.87)"/><path class="logo-cls-7" d="M44.22,205.55l4.4-2.27" transform="translate(-17.94 -164.87)"/><path class="logo-cls-7" d="M40.16,205.31h0" transform="translate(-17.94 -164.87)"/><path class="logo-cls-7" d="M58.44,216.43h0" transform="translate(-17.94 -164.87)"/><path class="logo-cls-7" d="M58.44,216.43l-2.39-1" transform="translate(-17.94 -164.87)"/><path class="logo-cls-7" d="M56.05,215.43h0" transform="translate(-17.94 -164.87)"/><path class="logo-cls-7" d="M56.05,215.43l-3.92-2.24" transform="translate(-17.94 -164.87)"/><path class="logo-cls-7" d="M52.13,213.19h0" transform="translate(-17.94 -164.87)"/><path class="logo-cls-7" d="M52.13,213.19l-3.27-.71" transform="translate(-17.94 -164.87)"/><path class="logo-cls-7" d="M52.13,213.19,50.7,209" transform="translate(-17.94 -164.87)"/><path class="logo-cls-7" d="M52.13,213.19,57,211.62" transform="translate(-17.94 -164.87)"/><path class="logo-cls-7" d="M48.86,212.48h0" transform="translate(-17.94 -164.87)"/><path class="logo-cls-7" d="M48.86,212.48l-2.21-1.79" transform="translate(-17.94 -164.87)"/><path class="logo-cls-7" d="M46.65,210.69h0" transform="translate(-17.94 -164.87)"/><path class="logo-cls-7" d="M36,206.9h0" transform="translate(-17.94 -164.87)"/><path class="logo-cls-7" d="M36,206.9l4.2-1.59" transform="translate(-17.94 -164.87)"/><circle class="logo-cls-8" cx="31.96" cy="10.68" r="6.76"/><circle class="logo-cls-9" cx="34.95" cy="20.4" r="6.76"/><circle class="logo-cls-10" cx="33.84" cy="24.97" r="6.76"/><circle class="logo-cls-11" cx="43.04" cy="45.72" r="6.76"/><circle class="logo-cls-12" cx="37.41" cy="42.24" r="6.76"/><circle class="logo-cls-13" cx="27.53" cy="38.61" r="6.76"/><circle class="logo-cls-14" cx="42.77" cy="48.77" r="6.76"/><circle class="logo-cls-15" cx="36.39" cy="45.8" r="6.76"/><circle class="logo-cls-16" cx="18.32" cy="38.22" r="6.76"/><circle class="logo-cls-17" cx="25.08" cy="44.26" r="6.76"/><circle class="logo-cls-18" cx="20.24" cy="42.96" r="6.76"/><circle class="logo-cls-19" cx="37.64" cy="13.26" r="1.35"/><circle class="logo-cls-19" cx="34.4" cy="12.98" r="1.35"/><circle class="logo-cls-19" cx="33.67" cy="16.33" r="1.35"/><circle class="logo-cls-19" cx="29.01" cy="14.77" r="1.35"/><circle class="logo-cls-19" cx="30.75" cy="19.09" r="1.35"/><circle class="logo-cls-19" cx="27.28" cy="18.09" r="1.35"/><circle class="logo-cls-19" cx="29.58" cy="22.76" r="1.35"/><circle class="logo-cls-19" cx="26.54" cy="21.14" r="1.35"/><circle class="logo-cls-19" cx="31.96" cy="28.44" r="1.35"/><circle class="logo-cls-19" cx="29.03" cy="26.9" r="1.35"/><circle class="logo-cls-19" cx="25.55" cy="24.24" r="1.35"/><circle class="logo-cls-19" cx="32.88" cy="32.84" r="1.35"/><circle class="logo-cls-19" cx="30.83" cy="30.4" r="1.35"/><circle class="logo-cls-19" cx="27.14" cy="29.31" r="1.35"/><circle class="logo-cls-19" cx="24.02" cy="27.77" r="1.35"/><circle class="logo-cls-19" cx="35.33" cy="36.57" r="1.35"/><circle class="logo-cls-19" cx="33.09" cy="35.58" r="1.35"/><circle class="logo-cls-19" cx="24.96" cy="32.82" r="1.35"/><circle class="logo-cls-19" cx="21.79" cy="31.64" r="1.35"/><circle class="logo-cls-19" cx="41.33" cy="44.45" r="1.35"/><circle class="logo-cls-19" cx="33.58" cy="40.16" r="1.35"/><circle class="logo-cls-19" cx="30.68" cy="38.41" r="1.35"/><circle class="logo-cls-19" cx="22.87" cy="36.77" r="1.35"/><circle class="logo-cls-19" cx="19.67" cy="34.66" r="1.35"/><circle class="logo-cls-19" cx="39.02" cy="46.75" r="1.35"/><circle class="logo-cls-19" cx="32.76" cy="44.1" r="1.35"/><circle class="logo-cls-19" cx="29.24" cy="42.99" r="1.35"/><circle class="logo-cls-19" cx="26.28" cy="40.68" r="1.35"/><circle class="logo-cls-19" cx="22.22" cy="40.44" r="1.35"/><circle class="logo-cls-19" cx="40.5" cy="51.56" r="1.35"/><circle class="logo-cls-19" cx="38.11" cy="50.56" r="1.35"/><circle class="logo-cls-19" cx="34.19" cy="48.32" r="1.35"/><circle class="logo-cls-19" cx="30.92" cy="47.61" r="1.35"/><circle class="logo-cls-19" cx="28.71" cy="45.83" r="1.35"/><circle class="logo-cls-19" cx="18.02" cy="42.04" r="1.35"/></svg>