<svg xmlns="http://www.w3.org/2000/svg" version="1.1" xmlns:xlink="http://www.w3.org/1999/xlink" xmlns:svgjs="http://svgjs.com/svgjs" width="1440" height="560" preserveAspectRatio="none" viewBox="0 0 1440 560"><g mask="url(&quot;#SvgjsMask1002&quot;)" fill="none"><path d="M-61.42 342.05L-61.42 342.05" stroke="#132e65" stroke-width="1.5"></path><path d="M-61.42 342.05L44.74 349.51" stroke="#132e65" stroke-width="1.5"></path><path d="M-61.42 342.05L-62.73 542.11" stroke="#132e65" stroke-width="1.5"></path><path d="M-61.42 342.05L74.49 530.17" stroke="#132e65" stroke-width="1.5"></path><path d="M-61.42 342.05L237.29 408.84" stroke="#132e65" stroke-width="1.5"></path><path d="M-62.73 542.11L-62.73 542.11" stroke="#132e65" stroke-width="1.5"></path><path d="M-62.73 542.11L74.49 530.17" stroke="#132e65" stroke-width="1.5"></path><path d="M-62.73 542.11L75.39 697.16" stroke="#132e65" stroke-width="1.5"></path><path d="M-62.73 542.11L44.74 349.51" stroke="#132e65" stroke-width="1.5"></path><path d="M44.74 349.51L44.74 349.51" stroke="#132e65" stroke-width="1.5"></path><path d="M44.74 349.51L74.49 530.17" stroke="#132e65" stroke-width="1.5"></path><path d="M44.74 349.51L237.29 408.84" stroke="#132e65" stroke-width="1.5"></path><path d="M44.74 349.51L241.37 494.42" stroke="#132e65" stroke-width="1.5"></path><path d="M44.74 349.51L337.67 380.41" stroke="#132e65" stroke-width="1.5"></path><path d="M74.49 530.17L74.49 530.17" stroke="#132e65" stroke-width="1.5"></path><path d="M74.49 530.17L75.39 697.16" stroke="#132e65" stroke-width="1.5"></path><path d="M74.49 530.17L241.37 494.42" stroke="#132e65" stroke-width="1.5"></path><path d="M74.49 530.17L237.29 408.84" stroke="#132e65" stroke-width="1.5"></path><path d="M75.39 697.16L75.39 697.16" stroke="#132e65" stroke-width="1.5"></path><path d="M75.39 697.16L227.99 703.88" stroke="#132e65" stroke-width="1.5"></path><path d="M75.39 697.16L241.37 494.42" stroke="#132e65" stroke-width="1.5"></path><path d="M75.39 697.16L237.29 408.84" stroke="#132e65" stroke-width="1.5"></path><path d="M75.39 697.16L411.07 649.58" stroke="#132e65" stroke-width="1.5"></path><path d="M237.29 408.84L237.29 408.84" stroke="#132e65" stroke-width="1.5"></path><path d="M237.29 408.84L241.37 494.42" stroke="#132e65" stroke-width="1.5"></path><path d="M237.29 408.84L337.67 380.41" stroke="#132e65" stroke-width="1.5"></path><path d="M237.29 408.84L382.04 547.54" stroke="#132e65" stroke-width="1.5"></path><path d="M241.37 494.42L241.37 494.42" stroke="#132e65" stroke-width="1.5"></path><path d="M241.37 494.42L337.67 380.41" stroke="#132e65" stroke-width="1.5"></path><path d="M241.37 494.42L382.04 547.54" stroke="#132e65" stroke-width="1.5"></path><path d="M241.37 494.42L227.99 703.88" stroke="#132e65" stroke-width="1.5"></path><path d="M241.37 494.42L411.07 649.58" stroke="#132e65" stroke-width="1.5"></path><path d="M227.99 703.88L227.99 703.88" stroke="#132e65" stroke-width="1.5"></path><path d="M227.99 703.88L411.07 649.58" stroke="#132e65" stroke-width="1.5"></path><path d="M337.67 380.41L337.67 380.41" stroke="#132e65" stroke-width="1.5"></path><path d="M382.04 547.54L382.04 547.54" stroke="#132e65" stroke-width="1.5"></path><path d="M382.04 547.54L411.07 649.58" stroke="#132e65" stroke-width="1.5"></path><path d="M382.04 547.54L520.36 536.83" stroke="#132e65" stroke-width="1.5"></path><path d="M411.07 649.58L411.07 649.58" stroke="#132e65" stroke-width="1.5"></path><path d="M411.07 649.58L520.36 536.83" stroke="#132e65" stroke-width="1.5"></path><path d="M411.07 649.58L659.78 696.29" stroke="#132e65" stroke-width="1.5"></path><path d="M522.08 354.22L522.08 354.22" stroke="#132e65" stroke-width="1.5"></path><path d="M522.08 354.22L658.68 344.6" stroke="#132e65" stroke-width="1.5"></path><path d="M522.08 354.22L647.26 247.21" stroke="#132e65" stroke-width="1.5"></path><path d="M522.08 354.22L520.36 536.83" stroke="#132e65" stroke-width="1.5"></path><path d="M522.08 354.22L337.67 380.41" stroke="#132e65" stroke-width="1.5"></path><path d="M522.08 354.22L382.04 547.54" stroke="#132e65" stroke-width="1.5"></path><path d="M520.36 536.83L520.36 536.83" stroke="#132e65" stroke-width="1.5"></path><path d="M520.36 536.83L670.17 554.49" stroke="#132e65" stroke-width="1.5"></path><path d="M520.36 536.83L659.78 696.29" stroke="#132e65" stroke-width="1.5"></path><path d="M647.26 247.21L647.26 247.21" stroke="#132e65" stroke-width="1.5"></path><path d="M647.26 247.21L658.68 344.6" stroke="#132e65" stroke-width="1.5"></path><path d="M647.26 247.21L843.54 234.36" stroke="#132e65" stroke-width="1.5"></path><path d="M647.26 247.21L819.24 400.04" stroke="#132e65" stroke-width="1.5"></path><path d="M647.26 247.21L836.13 93.85" stroke="#132e65" stroke-width="1.5"></path><path d="M647.26 247.21L806.97 509.95" stroke="#132e65" stroke-width="1.5"></path><path d="M658.68 344.6L658.68 344.6" stroke="#132e65" stroke-width="1.5"></path><path d="M658.68 344.6L819.24 400.04" stroke="#132e65" stroke-width="1.5"></path><path d="M658.68 344.6L670.17 554.49" stroke="#132e65" stroke-width="1.5"></path><path d="M670.17 554.49L670.17 554.49" stroke="#132e65" stroke-width="1.5"></path><path d="M670.17 554.49L659.78 696.29" stroke="#132e65" stroke-width="1.5"></path><path d="M670.17 554.49L806.97 509.95" stroke="#132e65" stroke-width="1.5"></path><path d="M670.17 554.49L819.79 675.53" stroke="#132e65" stroke-width="1.5"></path><path d="M670.17 554.49L819.24 400.04" stroke="#132e65" stroke-width="1.5"></path><path d="M659.78 696.29L659.78 696.29" stroke="#132e65" stroke-width="1.5"></path><path d="M659.78 696.29L819.79 675.53" stroke="#132e65" stroke-width="1.5"></path><path d="M836.13 93.85L836.13 93.85" stroke="#132e65" stroke-width="1.5"></path><path d="M836.13 93.85L972.6 84.75" stroke="#132e65" stroke-width="1.5"></path><path d="M843.54 234.36L843.54 234.36" stroke="#132e65" stroke-width="1.5"></path><path d="M843.54 234.36L836.13 93.85" stroke="#132e65" stroke-width="1.5"></path><path d="M843.54 234.36L819.24 400.04" stroke="#132e65" stroke-width="1.5"></path><path d="M843.54 234.36L1011.49 214.93" stroke="#132e65" stroke-width="1.5"></path><path d="M843.54 234.36L972.6 84.75" stroke="#132e65" stroke-width="1.5"></path><path d="M819.24 400.04L819.24 400.04" stroke="#132e65" stroke-width="1.5"></path><path d="M819.24 400.04L806.97 509.95" stroke="#132e65" stroke-width="1.5"></path><path d="M806.97 509.95L806.97 509.95" stroke="#132e65" stroke-width="1.5"></path><path d="M806.97 509.95L819.79 675.53" stroke="#132e65" stroke-width="1.5"></path><path d="M806.97 509.95L994.08 500.17" stroke="#132e65" stroke-width="1.5"></path><path d="M806.97 509.95L658.68 344.6" stroke="#132e65" stroke-width="1.5"></path><path d="M819.79 675.53L819.79 675.53" stroke="#132e65" stroke-width="1.5"></path><path d="M819.79 675.53L1004.43 675.01" stroke="#132e65" stroke-width="1.5"></path><path d="M983.63 -83.65L983.63 -83.65" stroke="#132e65" stroke-width="1.5"></path><path d="M983.63 -83.65L972.6 84.75" stroke="#132e65" stroke-width="1.5"></path><path d="M983.63 -83.65L1095.26 57.4" stroke="#132e65" stroke-width="1.5"></path><path d="M983.63 -83.65L836.13 93.85" stroke="#132e65" stroke-width="1.5"></path><path d="M983.63 -83.65L1011.49 214.93" stroke="#132e65" stroke-width="1.5"></path><path d="M983.63 -83.65L1297.52 -39.97" stroke="#132e65" stroke-width="1.5"></path><path d="M972.6 84.75L972.6 84.75" stroke="#132e65" stroke-width="1.5"></path><path d="M972.6 84.75L1095.26 57.4" stroke="#132e65" stroke-width="1.5"></path><path d="M972.6 84.75L1011.49 214.93" stroke="#132e65" stroke-width="1.5"></path><path d="M1011.49 214.93L1011.49 214.93" stroke="#132e65" stroke-width="1.5"></path><path d="M1011.49 214.93L1095.26 57.4" stroke="#132e65" stroke-width="1.5"></path><path d="M1011.49 214.93L836.13 93.85" stroke="#132e65" stroke-width="1.5"></path><path d="M1011.49 214.93L1244.73 238.2" stroke="#132e65" stroke-width="1.5"></path><path d="M1011.49 214.93L1241.27 107.08" stroke="#132e65" stroke-width="1.5"></path><path d="M994.08 500.17L994.08 500.17" stroke="#132e65" stroke-width="1.5"></path><path d="M994.08 500.17L1126.41 546.58" stroke="#132e65" stroke-width="1.5"></path><path d="M994.08 500.17L1004.43 675.01" stroke="#132e65" stroke-width="1.5"></path><path d="M994.08 500.17L1100.03 661.68" stroke="#132e65" stroke-width="1.5"></path><path d="M1004.43 675.01L1004.43 675.01" stroke="#132e65" stroke-width="1.5"></path><path d="M1004.43 675.01L1100.03 661.68" stroke="#132e65" stroke-width="1.5"></path><path d="M1004.43 675.01L1126.41 546.58" stroke="#132e65" stroke-width="1.5"></path><path d="M1095.26 57.4L1095.26 57.4" stroke="#132e65" stroke-width="1.5"></path><path d="M1095.26 57.4L1241.27 107.08" stroke="#132e65" stroke-width="1.5"></path><path d="M1126.41 546.58L1126.41 546.58" stroke="#132e65" stroke-width="1.5"></path><path d="M1126.41 546.58L1100.03 661.68" stroke="#132e65" stroke-width="1.5"></path><path d="M1126.41 546.58L1279.22 497.87" stroke="#132e65" stroke-width="1.5"></path><path d="M1126.41 546.58L1306.48 688.91" stroke="#132e65" stroke-width="1.5"></path><path d="M1100.03 661.68L1100.03 661.68" stroke="#132e65" stroke-width="1.5"></path><path d="M1297.52 -39.97L1297.52 -39.97" stroke="#132e65" stroke-width="1.5"></path><path d="M1297.52 -39.97L1407.81 -51.78" stroke="#132e65" stroke-width="1.5"></path><path d="M1297.52 -39.97L1241.27 107.08" stroke="#132e65" stroke-width="1.5"></path><path d="M1297.52 -39.97L1462.21 105.93" stroke="#132e65" stroke-width="1.5"></path><path d="M1297.52 -39.97L1095.26 57.4" stroke="#132e65" stroke-width="1.5"></path><path d="M1297.52 -39.97L1244.73 238.2" stroke="#132e65" stroke-width="1.5"></path><path d="M1297.52 -39.97L1566.31 63.17" stroke="#132e65" stroke-width="1.5"></path><path d="M1241.27 107.08L1241.27 107.08" stroke="#132e65" stroke-width="1.5"></path><path d="M1241.27 107.08L1244.73 238.2" stroke="#132e65" stroke-width="1.5"></path><path d="M1244.73 238.2L1244.73 238.2" stroke="#132e65" stroke-width="1.5"></path><path d="M1244.73 238.2L1452.23 260.18" stroke="#132e65" stroke-width="1.5"></path><path d="M1279.22 497.87L1279.22 497.87" stroke="#132e65" stroke-width="1.5"></path><path d="M1279.22 497.87L1438.3 506.54" stroke="#132e65" stroke-width="1.5"></path><path d="M1279.22 497.87L1306.48 688.91" stroke="#132e65" stroke-width="1.5"></path><path d="M1279.22 497.87L1433.86 359.89" stroke="#132e65" stroke-width="1.5"></path><path d="M1279.22 497.87L1100.03 661.68" stroke="#132e65" stroke-width="1.5"></path><path d="M1279.22 497.87L1244.73 238.2" stroke="#132e65" stroke-width="1.5"></path><path d="M1306.48 688.91L1306.48 688.91" stroke="#132e65" stroke-width="1.5"></path><path d="M1306.48 688.91L1100.03 661.68" stroke="#132e65" stroke-width="1.5"></path><path d="M1306.48 688.91L1438.3 506.54" stroke="#132e65" stroke-width="1.5"></path><path d="M1407.81 -51.78L1407.81 -51.78" stroke="#132e65" stroke-width="1.5"></path><path d="M1407.81 -51.78L1462.21 105.93" stroke="#132e65" stroke-width="1.5"></path><path d="M1407.81 -51.78L1566.31 63.17" stroke="#132e65" stroke-width="1.5"></path><path d="M1407.81 -51.78L1606.93 -109.42" stroke="#132e65" stroke-width="1.5"></path><path d="M1407.81 -51.78L1241.27 107.08" stroke="#132e65" stroke-width="1.5"></path><path d="M1407.81 -51.78L1452.23 260.18" stroke="#132e65" stroke-width="1.5"></path><path d="M1462.21 105.93L1462.21 105.93" stroke="#132e65" stroke-width="1.5"></path><path d="M1462.21 105.93L1566.31 63.17" stroke="#132e65" stroke-width="1.5"></path><path d="M1462.21 105.93L1452.23 260.18" stroke="#132e65" stroke-width="1.5"></path><path d="M1452.23 260.18L1452.23 260.18" stroke="#132e65" stroke-width="1.5"></path><path d="M1452.23 260.18L1433.86 359.89" stroke="#132e65" stroke-width="1.5"></path><path d="M1452.23 260.18L1561.99 246.54" stroke="#132e65" stroke-width="1.5"></path><path d="M1433.86 359.89L1433.86 359.89" stroke="#132e65" stroke-width="1.5"></path><path d="M1433.86 359.89L1557.14 379.52" stroke="#132e65" stroke-width="1.5"></path><path d="M1433.86 359.89L1438.3 506.54" stroke="#132e65" stroke-width="1.5"></path><path d="M1433.86 359.89L1561.99 246.54" stroke="#132e65" stroke-width="1.5"></path><path d="M1438.3 506.54L1438.3 506.54" stroke="#132e65" stroke-width="1.5"></path><path d="M1438.3 506.54L1557.14 379.52" stroke="#132e65" stroke-width="1.5"></path><path d="M1438.3 506.54L1547.22 686.64" stroke="#132e65" stroke-width="1.5"></path><path d="M1606.93 -109.42L1606.93 -109.42" stroke="#132e65" stroke-width="1.5"></path><path d="M1606.93 -109.42L1566.31 63.17" stroke="#132e65" stroke-width="1.5"></path><path d="M1606.93 -109.42L1462.21 105.93" stroke="#132e65" stroke-width="1.5"></path><path d="M1566.31 63.17L1566.31 63.17" stroke="#132e65" stroke-width="1.5"></path><path d="M1561.99 246.54L1561.99 246.54" stroke="#132e65" stroke-width="1.5"></path><path d="M1561.99 246.54L1557.14 379.52" stroke="#132e65" stroke-width="1.5"></path><path d="M1561.99 246.54L1462.21 105.93" stroke="#132e65" stroke-width="1.5"></path><path d="M1561.99 246.54L1566.31 63.17" stroke="#132e65" stroke-width="1.5"></path><path d="M1557.14 379.52L1557.14 379.52" stroke="#132e65" stroke-width="1.5"></path><path d="M1557.14 379.52L1452.23 260.18" stroke="#132e65" stroke-width="1.5"></path><path d="M1557.14 379.52L1462.21 105.93" stroke="#132e65" stroke-width="1.5"></path><path d="M1547.22 686.64L1547.22 686.64" stroke="#132e65" stroke-width="1.5"></path><path d="M1547.22 686.64L1306.48 688.91" stroke="#132e65" stroke-width="1.5"></path><path d="M1547.22 686.64L1557.14 379.52" stroke="#132e65" stroke-width="1.5"></path><path d="M1547.22 686.64L1279.22 497.87" stroke="#132e65" stroke-width="1.5"></path><path d="M1547.22 686.64L1433.86 359.89" stroke="#132e65" stroke-width="1.5"></path><path d="M1547.22 686.64L1452.23 260.18" stroke="#132e65" stroke-width="1.5"></path><circle r="5" cx="-61.42" cy="342.05" fill="#132e65"></circle><circle r="5" cx="-62.73" cy="542.11" fill="#132e65"></circle><circle r="5" cx="44.74" cy="349.51" fill="#132e65"></circle><circle r="5" cx="74.49" cy="530.17" fill="#132e65"></circle><circle r="5" cx="75.39" cy="697.16" fill="#132e65"></circle><circle r="5" cx="237.29" cy="408.84" fill="#132e65"></circle><circle r="5" cx="241.37" cy="494.42" fill="#132e65"></circle><circle r="5" cx="227.99" cy="703.88" fill="#132e65"></circle><circle r="5" cx="337.67" cy="380.41" fill="#132e65"></circle><circle r="5" cx="382.04" cy="547.54" fill="#132e65"></circle><circle r="5" cx="411.07" cy="649.58" fill="#132e65"></circle><circle r="5" cx="522.08" cy="354.22" fill="#132e65"></circle><circle r="5" cx="520.36" cy="536.83" fill="#132e65"></circle><circle r="5" cx="647.26" cy="247.21" fill="#132e65"></circle><circle r="5" cx="658.68" cy="344.6" fill="#132e65"></circle><circle r="5" cx="670.17" cy="554.49" fill="#132e65"></circle><circle r="5" cx="659.78" cy="696.29" fill="#132e65"></circle><circle r="5" cx="836.13" cy="93.85" fill="#132e65"></circle><circle r="5" cx="843.54" cy="234.36" fill="#132e65"></circle><circle r="5" cx="819.24" cy="400.04" fill="#132e65"></circle><circle r="5" cx="806.97" cy="509.95" fill="#132e65"></circle><circle r="5" cx="819.79" cy="675.53" fill="#132e65"></circle><circle r="5" cx="983.63" cy="-83.65" fill="#132e65"></circle><circle r="5" cx="972.6" cy="84.75" fill="#132e65"></circle><circle r="5" cx="1011.49" cy="214.93" fill="#132e65"></circle><circle r="5" cx="994.08" cy="500.17" fill="#132e65"></circle><circle r="5" cx="1004.43" cy="675.01" fill="#132e65"></circle><circle r="5" cx="1095.26" cy="57.4" fill="#132e65"></circle><circle r="5" cx="1126.41" cy="546.58" fill="#132e65"></circle><circle r="5" cx="1100.03" cy="661.68" fill="#132e65"></circle><circle r="5" cx="1297.52" cy="-39.97" fill="#132e65"></circle><circle r="5" cx="1241.27" cy="107.08" fill="#132e65"></circle><circle r="5" cx="1244.73" cy="238.2" fill="#132e65"></circle><circle r="5" cx="1279.22" cy="497.87" fill="#132e65"></circle><circle r="5" cx="1306.48" cy="688.91" fill="#132e65"></circle><circle r="5" cx="1407.81" cy="-51.78" fill="#132e65"></circle><circle r="5" cx="1462.21" cy="105.93" fill="#132e65"></circle><circle r="5" cx="1452.23" cy="260.18" fill="#132e65"></circle><circle r="5" cx="1433.86" cy="359.89" fill="#132e65"></circle><circle r="5" cx="1438.3" cy="506.54" fill="#132e65"></circle><circle r="5" cx="1606.93" cy="-109.42" fill="#132e65"></circle><circle r="5" cx="1566.31" cy="63.17" fill="#132e65"></circle><circle r="5" cx="1561.99" cy="246.54" fill="#132e65"></circle><circle r="5" cx="1557.14" cy="379.52" fill="#132e65"></circle><circle r="5" cx="1547.22" cy="686.64" fill="#132e65"></circle><path d="M664.65 511.34L664.65 511.34" stroke="hsl(228.5, 77.2%, 51.5%)" stroke-width="1.5"></path><path d="M664.65 511.34L804.49 515.97" stroke="hsl(228.5, 77.2%, 51.5%)" stroke-width="1.5"></path><path d="M664.65 511.34L502.39 517.48" stroke="hsl(228.5, 77.2%, 51.5%)" stroke-width="1.5"></path><path d="M664.65 511.34L686.53 690.19" stroke="hsl(228.5, 77.2%, 51.5%)" stroke-width="1.5"></path><path d="M664.65 511.34L527.54 673.24" stroke="hsl(228.5, 77.2%, 51.5%)" stroke-width="1.5"></path><path d="M664.65 511.34L850.44 656.7" stroke="hsl(228.5, 77.2%, 51.5%)" stroke-width="1.5"></path><path d="M664.65 511.34L859.15 362.25" stroke="hsl(228.5, 77.2%, 51.5%)" stroke-width="1.5"></path><path d="M686.53 690.19L686.53 690.19" stroke="hsl(228.5, 77.2%, 51.5%)" stroke-width="1.5"></path><path d="M686.53 690.19L527.54 673.24" stroke="hsl(228.5, 77.2%, 51.5%)" stroke-width="1.5"></path><path d="M686.53 690.19L850.44 656.7" stroke="hsl(228.5, 77.2%, 51.5%)" stroke-width="1.5"></path><path d="M686.53 690.19L804.49 515.97" stroke="hsl(228.5, 77.2%, 51.5%)" stroke-width="1.5"></path><path d="M686.53 690.19L502.39 517.48" stroke="hsl(228.5, 77.2%, 51.5%)" stroke-width="1.5"></path><path d="M859.15 362.25L859.15 362.25" stroke="hsl(228.5, 77.2%, 51.5%)" stroke-width="1.5"></path><path d="M859.15 362.25L969.21 380.94" stroke="hsl(228.5, 77.2%, 51.5%)" stroke-width="1.5"></path><path d="M859.15 362.25L804.49 515.97" stroke="hsl(228.5, 77.2%, 51.5%)" stroke-width="1.5"></path><path d="M859.15 362.25L954.03 539.71" stroke="hsl(228.5, 77.2%, 51.5%)" stroke-width="1.5"></path><path d="M859.15 362.25L1100.97 401.76" stroke="hsl(228.5, 77.2%, 51.5%)" stroke-width="1.5"></path><path d="M1100.97 401.76L1100.97 401.76" stroke="hsl(228.5, 77.2%, 51.5%)" stroke-width="1.5"></path><path d="M1100.97 401.76L1147.4 519.29" stroke="hsl(228.5, 77.2%, 51.5%)" stroke-width="1.5"></path><path d="M1100.97 401.76L969.21 380.94" stroke="hsl(228.5, 77.2%, 51.5%)" stroke-width="1.5"></path><path d="M1262.24 339.7L1262.24 339.7" stroke="hsl(228.5, 77.2%, 51.5%)" stroke-width="1.5"></path><path d="M1262.24 339.7L1272.75 248.56" stroke="hsl(228.5, 77.2%, 51.5%)" stroke-width="1.5"></path><path d="M1262.24 339.7L1422.93 359.67" stroke="hsl(228.5, 77.2%, 51.5%)" stroke-width="1.5"></path><path d="M1262.24 339.7L1123.86 243.57" stroke="hsl(228.5, 77.2%, 51.5%)" stroke-width="1.5"></path><path d="M1422.93 359.67L1422.93 359.67" stroke="hsl(228.5, 77.2%, 51.5%)" stroke-width="1.5"></path><path d="M1422.93 359.67L1403.17 227.42" stroke="hsl(228.5, 77.2%, 51.5%)" stroke-width="1.5"></path><path d="M1422.93 359.67L1426.5 504.77" stroke="hsl(228.5, 77.2%, 51.5%)" stroke-width="1.5"></path><path d="M1610.76 341.72L1610.76 341.72" stroke="hsl(228.5, 77.2%, 51.5%)" stroke-width="1.5"></path><path d="M1610.76 341.72L1609.41 220.36" stroke="hsl(228.5, 77.2%, 51.5%)" stroke-width="1.5"></path><path d="M1610.76 341.72L1422.93 359.67" stroke="hsl(228.5, 77.2%, 51.5%)" stroke-width="1.5"></path><path d="M1610.76 341.72L1579.85 551.8" stroke="hsl(228.5, 77.2%, 51.5%)" stroke-width="1.5"></path><path d="M1610.76 341.72L1403.17 227.42" stroke="hsl(228.5, 77.2%, 51.5%)" stroke-width="1.5"></path><path d="M-77.97 513.84L-77.97 513.84" stroke="hsl(228.5, 77.2%, 51.5%)" stroke-width="1.5"></path><path d="M-77.97 513.84L63.39 497.33" stroke="hsl(228.5, 77.2%, 51.5%)" stroke-width="1.5"></path><path d="M-77.96 697.72L-77.96 697.72" stroke="hsl(228.5, 77.2%, 51.5%)" stroke-width="1.5"></path><path d="M-77.96 697.72L91.78 665.14" stroke="hsl(228.5, 77.2%, 51.5%)" stroke-width="1.5"></path><path d="M-77.96 697.72L-77.97 513.84" stroke="hsl(228.5, 77.2%, 51.5%)" stroke-width="1.5"></path><path d="M-77.96 697.72L63.39 497.33" stroke="hsl(228.5, 77.2%, 51.5%)" stroke-width="1.5"></path><path d="M63.39 497.33L63.39 497.33" stroke="hsl(228.5, 77.2%, 51.5%)" stroke-width="1.5"></path><path d="M63.39 497.33L226 516.11" stroke="hsl(228.5, 77.2%, 51.5%)" stroke-width="1.5"></path><path d="M63.39 497.33L91.78 665.14" stroke="hsl(228.5, 77.2%, 51.5%)" stroke-width="1.5"></path><path d="M63.39 497.33L230.68 669.63" stroke="hsl(228.5, 77.2%, 51.5%)" stroke-width="1.5"></path><path d="M63.39 497.33L502.39 517.48" stroke="hsl(228.5, 77.2%, 51.5%)" stroke-width="1.5"></path><path d="M91.78 665.14L91.78 665.14" stroke="hsl(228.5, 77.2%, 51.5%)" stroke-width="1.5"></path><path d="M91.78 665.14L230.68 669.63" stroke="hsl(228.5, 77.2%, 51.5%)" stroke-width="1.5"></path><path d="M226 516.11L226 516.11" stroke="hsl(228.5, 77.2%, 51.5%)" stroke-width="1.5"></path><path d="M226 516.11L230.68 669.63" stroke="hsl(228.5, 77.2%, 51.5%)" stroke-width="1.5"></path><path d="M226 516.11L91.78 665.14" stroke="hsl(228.5, 77.2%, 51.5%)" stroke-width="1.5"></path><path d="M226 516.11L502.39 517.48" stroke="hsl(228.5, 77.2%, 51.5%)" stroke-width="1.5"></path><path d="M226 516.11L-77.97 513.84" stroke="hsl(228.5, 77.2%, 51.5%)" stroke-width="1.5"></path><path d="M230.68 669.63L230.68 669.63" stroke="hsl(228.5, 77.2%, 51.5%)" stroke-width="1.5"></path><path d="M230.68 669.63L527.54 673.24" stroke="hsl(228.5, 77.2%, 51.5%)" stroke-width="1.5"></path><path d="M230.68 669.63L-77.96 697.72" stroke="hsl(228.5, 77.2%, 51.5%)" stroke-width="1.5"></path><path d="M502.39 517.48L502.39 517.48" stroke="hsl(228.5, 77.2%, 51.5%)" stroke-width="1.5"></path><path d="M502.39 517.48L527.54 673.24" stroke="hsl(228.5, 77.2%, 51.5%)" stroke-width="1.5"></path><path d="M527.54 673.24L527.54 673.24" stroke="hsl(228.5, 77.2%, 51.5%)" stroke-width="1.5"></path><path d="M527.54 673.24L804.49 515.97" stroke="hsl(228.5, 77.2%, 51.5%)" stroke-width="1.5"></path><path d="M527.54 673.24L850.44 656.7" stroke="hsl(228.5, 77.2%, 51.5%)" stroke-width="1.5"></path><path d="M804.49 515.97L804.49 515.97" stroke="hsl(228.5, 77.2%, 51.5%)" stroke-width="1.5"></path><path d="M804.49 515.97L850.44 656.7" stroke="hsl(228.5, 77.2%, 51.5%)" stroke-width="1.5"></path><path d="M804.49 515.97L954.03 539.71" stroke="hsl(228.5, 77.2%, 51.5%)" stroke-width="1.5"></path><path d="M850.44 656.7L850.44 656.7" stroke="hsl(228.5, 77.2%, 51.5%)" stroke-width="1.5"></path><path d="M850.44 656.7L972.77 669.21" stroke="hsl(228.5, 77.2%, 51.5%)" stroke-width="1.5"></path><path d="M850.44 656.7L954.03 539.71" stroke="hsl(228.5, 77.2%, 51.5%)" stroke-width="1.5"></path><path d="M969.21 380.94L969.21 380.94" stroke="hsl(228.5, 77.2%, 51.5%)" stroke-width="1.5"></path><path d="M954.03 539.71L954.03 539.71" stroke="hsl(228.5, 77.2%, 51.5%)" stroke-width="1.5"></path><path d="M954.03 539.71L972.77 669.21" stroke="hsl(228.5, 77.2%, 51.5%)" stroke-width="1.5"></path><path d="M972.77 669.21L972.77 669.21" stroke="hsl(228.5, 77.2%, 51.5%)" stroke-width="1.5"></path><path d="M972.77 669.21L1089.39 676.44" stroke="hsl(228.5, 77.2%, 51.5%)" stroke-width="1.5"></path><path d="M972.77 669.21L804.49 515.97" stroke="hsl(228.5, 77.2%, 51.5%)" stroke-width="1.5"></path><path d="M1123.86 243.57L1123.86 243.57" stroke="hsl(228.5, 77.2%, 51.5%)" stroke-width="1.5"></path><path d="M1123.86 243.57L1272.75 248.56" stroke="hsl(228.5, 77.2%, 51.5%)" stroke-width="1.5"></path><path d="M1123.86 243.57L1100.97 401.76" stroke="hsl(228.5, 77.2%, 51.5%)" stroke-width="1.5"></path><path d="M1147.4 519.29L1147.4 519.29" stroke="hsl(228.5, 77.2%, 51.5%)" stroke-width="1.5"></path><path d="M1147.4 519.29L1264.22 559.78" stroke="hsl(228.5, 77.2%, 51.5%)" stroke-width="1.5"></path><path d="M1147.4 519.29L1089.39 676.44" stroke="hsl(228.5, 77.2%, 51.5%)" stroke-width="1.5"></path><path d="M1147.4 519.29L1243.13 673.22" stroke="hsl(228.5, 77.2%, 51.5%)" stroke-width="1.5"></path><path d="M1089.39 676.44L1089.39 676.44" stroke="hsl(228.5, 77.2%, 51.5%)" stroke-width="1.5"></path><path d="M1089.39 676.44L1243.13 673.22" stroke="hsl(228.5, 77.2%, 51.5%)" stroke-width="1.5"></path><path d="M1089.39 676.44L954.03 539.71" stroke="hsl(228.5, 77.2%, 51.5%)" stroke-width="1.5"></path><path d="M1089.39 676.44L1264.22 559.78" stroke="hsl(228.5, 77.2%, 51.5%)" stroke-width="1.5"></path><path d="M1089.39 676.44L850.44 656.7" stroke="hsl(228.5, 77.2%, 51.5%)" stroke-width="1.5"></path><path d="M1307.09 -85.62L1307.09 -85.62" stroke="hsl(228.5, 77.2%, 51.5%)" stroke-width="1.5"></path><path d="M1307.09 -85.62L1415.73 -76.88" stroke="hsl(228.5, 77.2%, 51.5%)" stroke-width="1.5"></path><path d="M1248.47 84.72L1248.47 84.72" stroke="hsl(228.5, 77.2%, 51.5%)" stroke-width="1.5"></path><path d="M1248.47 84.72L1272.75 248.56" stroke="hsl(228.5, 77.2%, 51.5%)" stroke-width="1.5"></path><path d="M1248.47 84.72L1307.09 -85.62" stroke="hsl(228.5, 77.2%, 51.5%)" stroke-width="1.5"></path><path d="M1248.47 84.72L1442.8 94.59" stroke="hsl(228.5, 77.2%, 51.5%)" stroke-width="1.5"></path><path d="M1248.47 84.72L1123.86 243.57" stroke="hsl(228.5, 77.2%, 51.5%)" stroke-width="1.5"></path><path d="M1248.47 84.72L1403.17 227.42" stroke="hsl(228.5, 77.2%, 51.5%)" stroke-width="1.5"></path><path d="M1272.75 248.56L1272.75 248.56" stroke="hsl(228.5, 77.2%, 51.5%)" stroke-width="1.5"></path><path d="M1272.75 248.56L1403.17 227.42" stroke="hsl(228.5, 77.2%, 51.5%)" stroke-width="1.5"></path><path d="M1264.22 559.78L1264.22 559.78" stroke="hsl(228.5, 77.2%, 51.5%)" stroke-width="1.5"></path><path d="M1264.22 559.78L1243.13 673.22" stroke="hsl(228.5, 77.2%, 51.5%)" stroke-width="1.5"></path><path d="M1264.22 559.78L1426.5 504.77" stroke="hsl(228.5, 77.2%, 51.5%)" stroke-width="1.5"></path><path d="M1264.22 559.78L1397.46 687.58" stroke="hsl(228.5, 77.2%, 51.5%)" stroke-width="1.5"></path><path d="M1264.22 559.78L1262.24 339.7" stroke="hsl(228.5, 77.2%, 51.5%)" stroke-width="1.5"></path><path d="M1243.13 673.22L1243.13 673.22" stroke="hsl(228.5, 77.2%, 51.5%)" stroke-width="1.5"></path><path d="M1243.13 673.22L1397.46 687.58" stroke="hsl(228.5, 77.2%, 51.5%)" stroke-width="1.5"></path><path d="M1415.73 -76.88L1415.73 -76.88" stroke="hsl(228.5, 77.2%, 51.5%)" stroke-width="1.5"></path><path d="M1415.73 -76.88L1442.8 94.59" stroke="hsl(228.5, 77.2%, 51.5%)" stroke-width="1.5"></path><path d="M1442.8 94.59L1442.8 94.59" stroke="hsl(228.5, 77.2%, 51.5%)" stroke-width="1.5"></path><path d="M1442.8 94.59L1553.85 82.96" stroke="hsl(228.5, 77.2%, 51.5%)" stroke-width="1.5"></path><path d="M1442.8 94.59L1403.17 227.42" stroke="hsl(228.5, 77.2%, 51.5%)" stroke-width="1.5"></path><path d="M1403.17 227.42L1403.17 227.42" stroke="hsl(228.5, 77.2%, 51.5%)" stroke-width="1.5"></path><path d="M1403.17 227.42L1262.24 339.7" stroke="hsl(228.5, 77.2%, 51.5%)" stroke-width="1.5"></path><path d="M1403.17 227.42L1609.41 220.36" stroke="hsl(228.5, 77.2%, 51.5%)" stroke-width="1.5"></path><path d="M1426.5 504.77L1426.5 504.77" stroke="hsl(228.5, 77.2%, 51.5%)" stroke-width="1.5"></path><path d="M1397.46 687.58L1397.46 687.58" stroke="hsl(228.5, 77.2%, 51.5%)" stroke-width="1.5"></path><path d="M1397.46 687.58L1426.5 504.77" stroke="hsl(228.5, 77.2%, 51.5%)" stroke-width="1.5"></path><path d="M1592.4 -92.11L1592.4 -92.11" stroke="hsl(228.5, 77.2%, 51.5%)" stroke-width="1.5"></path><path d="M1592.4 -92.11L1415.73 -76.88" stroke="hsl(228.5, 77.2%, 51.5%)" stroke-width="1.5"></path><path d="M1592.4 -92.11L1553.85 82.96" stroke="hsl(228.5, 77.2%, 51.5%)" stroke-width="1.5"></path><path d="M1592.4 -92.11L1442.8 94.59" stroke="hsl(228.5, 77.2%, 51.5%)" stroke-width="1.5"></path><path d="M1592.4 -92.11L1307.09 -85.62" stroke="hsl(228.5, 77.2%, 51.5%)" stroke-width="1.5"></path><path d="M1553.85 82.96L1553.85 82.96" stroke="hsl(228.5, 77.2%, 51.5%)" stroke-width="1.5"></path><path d="M1553.85 82.96L1609.41 220.36" stroke="hsl(228.5, 77.2%, 51.5%)" stroke-width="1.5"></path><path d="M1553.85 82.96L1403.17 227.42" stroke="hsl(228.5, 77.2%, 51.5%)" stroke-width="1.5"></path><path d="M1553.85 82.96L1415.73 -76.88" stroke="hsl(228.5, 77.2%, 51.5%)" stroke-width="1.5"></path><path d="M1609.41 220.36L1609.41 220.36" stroke="hsl(228.5, 77.2%, 51.5%)" stroke-width="1.5"></path><path d="M1609.41 220.36L1442.8 94.59" stroke="hsl(228.5, 77.2%, 51.5%)" stroke-width="1.5"></path><path d="M1609.41 220.36L1422.93 359.67" stroke="hsl(228.5, 77.2%, 51.5%)" stroke-width="1.5"></path><path d="M1609.41 220.36L1592.4 -92.11" stroke="hsl(228.5, 77.2%, 51.5%)" stroke-width="1.5"></path><path d="M1579.85 551.8L1579.85 551.8" stroke="hsl(228.5, 77.2%, 51.5%)" stroke-width="1.5"></path><path d="M1579.85 551.8L1426.5 504.77" stroke="hsl(228.5, 77.2%, 51.5%)" stroke-width="1.5"></path><path d="M1579.85 551.8L1397.46 687.58" stroke="hsl(228.5, 77.2%, 51.5%)" stroke-width="1.5"></path><path d="M1579.85 551.8L1422.93 359.67" stroke="hsl(228.5, 77.2%, 51.5%)" stroke-width="1.5"></path><circle r="25" cx="664.65" cy="511.34" fill="url(#SvgjsRadialGradient1003)"></circle><circle r="25" cx="686.53" cy="690.19" fill="url(#SvgjsRadialGradient1003)"></circle><circle r="25" cx="859.15" cy="362.25" fill="url(#SvgjsRadialGradient1003)"></circle><circle r="25" cx="1100.97" cy="401.76" fill="url(#SvgjsRadialGradient1003)"></circle><circle r="25" cx="1262.24" cy="339.7" fill="url(#SvgjsRadialGradient1003)"></circle><circle r="25" cx="1422.93" cy="359.67" fill="url(#SvgjsRadialGradient1003)"></circle><circle r="25" cx="1610.76" cy="341.72" fill="url(#SvgjsRadialGradient1003)"></circle><circle r="5" cx="-77.97" cy="513.84" fill="#8b9ad9"></circle><circle r="5" cx="-77.96" cy="697.72" fill="#8b9ad9"></circle><circle r="5" cx="63.39" cy="497.33" fill="#8b9ad9"></circle><circle r="5" cx="91.78" cy="665.14" fill="#8b9ad9"></circle><circle r="5" cx="226" cy="516.11" fill="#8b9ad9"></circle><circle r="5" cx="230.68" cy="669.63" fill="#8b9ad9"></circle><circle r="5" cx="502.39" cy="517.48" fill="#8b9ad9"></circle><circle r="5" cx="527.54" cy="673.24" fill="#8b9ad9"></circle><circle r="5" cx="804.49" cy="515.97" fill="#8b9ad9"></circle><circle r="5" cx="850.44" cy="656.7" fill="#8b9ad9"></circle><circle r="5" cx="969.21" cy="380.94" fill="#8b9ad9"></circle><circle r="5" cx="954.03" cy="539.71" fill="#8b9ad9"></circle><circle r="5" cx="972.77" cy="669.21" fill="#8b9ad9"></circle><circle r="5" cx="1123.86" cy="243.57" fill="#8b9ad9"></circle><circle r="5" cx="1147.4" cy="519.29" fill="#8b9ad9"></circle><circle r="5" cx="1089.39" cy="676.44" fill="#8b9ad9"></circle><circle r="5" cx="1307.09" cy="-85.62" fill="#8b9ad9"></circle><circle r="5" cx="1248.47" cy="84.72" fill="#8b9ad9"></circle><circle r="5" cx="1272.75" cy="248.56" fill="#8b9ad9"></circle><circle r="5" cx="1264.22" cy="559.78" fill="#8b9ad9"></circle><circle r="5" cx="1243.13" cy="673.22" fill="#8b9ad9"></circle><circle r="5" cx="1415.73" cy="-76.88" fill="#8b9ad9"></circle><circle r="5" cx="1442.8" cy="94.59" fill="#8b9ad9"></circle><circle r="5" cx="1403.17" cy="227.42" fill="#8b9ad9"></circle><circle r="5" cx="1426.5" cy="504.77" fill="#8b9ad9"></circle><circle r="5" cx="1397.46" cy="687.58" fill="#8b9ad9"></circle><circle r="5" cx="1592.4" cy="-92.11" fill="#8b9ad9"></circle><circle r="5" cx="1553.85" cy="82.96" fill="#8b9ad9"></circle><circle r="5" cx="1609.41" cy="220.36" fill="#8b9ad9"></circle><circle r="5" cx="1579.85" cy="551.8" fill="#8b9ad9"></circle></g><defs><mask id="SvgjsMask1002"><rect width="1440" height="560" fill="#ffffff"></rect></mask><radialGradient id="SvgjsRadialGradient1003"><stop stop-color="#ffffff" offset="0.1"></stop><stop stop-color="#1735b3" offset="0.2"></stop><stop stop-color="rgba(23, 53, 179, 0)" offset="1"></stop></radialGradient></defs></svg>