<svg xmlns="http://www.w3.org/2000/svg" version="1.1" xmlns:xlink="http://www.w3.org/1999/xlink" xmlns:svgjs="http://svgjs.com/svgjs" width="1500" height="250" preserveAspectRatio="none" viewBox="0 0 1500 250"><g mask="url(&quot;#SvgjsMask1039&quot;)" fill="none"><path d="M25 250L275 0L593 0L343 250z" fill="url(#SvgjsLinearGradient1040)"></path><path d="M281.5 250L531.5 0L902 0L652 250z" fill="url(#SvgjsLinearGradient1040)"></path><path d="M512 250L762 0L1002 0L752 250z" fill="url(#SvgjsLinearGradient1040)"></path><path d="M778.5 250L1028.5 0L1132 0L882 250z" fill="url(#SvgjsLinearGradient1040)"></path><path d="M1452 250L1202 0L966.5 0L1216.5 250z" fill="url(#SvgjsLinearGradient1041)"></path><path d="M1229.5 250L979.5 0L856.5 0L1106.5 250z" fill="url(#SvgjsLinearGradient1041)"></path><path d="M1000 250L750 0L673.5 0L923.5 250z" fill="url(#SvgjsLinearGradient1041)"></path><path d="M718.5 250L468.5 0L111.5 0L361.5 250z" fill="url(#SvgjsLinearGradient1041)"></path><path d="M1271.6417926294887 250L1500 21.641792629488776L1500 250z" fill="url(#SvgjsLinearGradient1040)"></path><path d="M0 250L228.35820737051122 250L 0 21.641792629488776z" fill="url(#SvgjsLinearGradient1041)"></path></g><defs><mask id="SvgjsMask1039"><rect width="1500" height="250" fill="#ffffff"></rect></mask><linearGradient x1="0%" y1="100%" x2="100%" y2="0%" id="SvgjsLinearGradient1040"><stop stop-color="rgba(15, 70, 185, 0.77)" offset="0"></stop><stop stop-opacity="0" stop-color="rgba(15, 70, 185, 0.77)" offset="0.66"></stop></linearGradient><linearGradient x1="100%" y1="100%" x2="0%" y2="0%" id="SvgjsLinearGradient1041"><stop stop-color="rgba(15, 70, 185, 0.77)" offset="0"></stop><stop stop-opacity="0" stop-color="rgba(15, 70, 185, 0.77)" offset="0.66"></stop></linearGradient></defs></svg>