<?xml version="1.0" standalone="no"?>
<!DOCTYPE svg PUBLIC "-//W3C//DTD SVG 20010904//EN"
 "http://www.w3.org/TR/2001/REC-SVG-20010904/DTD/svg10.dtd">
<svg version="1.0" xmlns="http://www.w3.org/2000/svg"
 width="2134.000000pt" height="2134.000000pt" viewBox="0 0 2134.000000 2134.000000"
 preserveAspectRatio="xMidYMid meet">
<metadata>
Created by potrace 1.14, written by Peter Selinger 2001-2017
</metadata>
<g transform="translate(0.000000,2134.000000) scale(0.100000,-0.100000)"
fill="#000000" stroke="none">
<path d="M3791 17556 l-3784 -3784 55 -194 c106 -363 187 -643 243 -833 31
-104 57 -197 59 -205 2 -8 18 -64 36 -125 18 -60 36 -123 41 -140 8 -30 16
-59 64 -220 48 -163 157 -539 165 -570 5 -16 36 -124 70 -240 34 -115 66 -225
71 -242 21 -78 31 -110 98 -343 39 -135 79 -270 88 -300 9 -30 18 -59 19 -65
2 -5 17 -57 34 -115 17 -58 33 -112 35 -122 5 -23 70 -247 100 -343 13 -44 31
-105 39 -135 16 -61 113 -395 171 -588 20 -68 38 -131 40 -140 8 -35 104 -358
115 -387 6 -16 11 -32 11 -35 -1 -10 115 -414 284 -990 20 -69 43 -147 51
-175 8 -27 16 -57 19 -65 2 -8 13 -46 24 -85 11 -38 52 -180 92 -315 39 -135
75 -258 79 -275 5 -16 44 -154 89 -305 44 -151 121 -417 171 -590 115 -399
205 -707 230 -790 11 -36 22 -77 25 -90 3 -14 9 -36 14 -50 9 -21 17 -50 37
-125 2 -5 30 -102 62 -215 94 -320 240 -824 308 -1057 25 -87 47 -165 50 -174
2 -9 17 -22 32 -27 23 -9 326 -98 417 -123 17 -4 55 -15 85 -24 30 -9 62 -18
70 -20 8 -2 94 -27 190 -56 96 -28 182 -53 190 -54 8 -2 15 -4 15 -5 0 -1 7
-3 15 -5 8 -2 56 -16 105 -30 50 -15 104 -30 120 -35 17 -4 140 -41 275 -80
135 -40 259 -76 275 -80 17 -5 86 -25 155 -45 69 -20 132 -39 140 -41 8 -2 78
-22 155 -45 77 -22 147 -42 155 -44 8 -2 44 -13 80 -24 58 -17 414 -120 465
-134 11 -3 103 -30 205 -60 187 -55 297 -87 315 -92 6 -1 23 -7 38 -13 16 -7
33 -12 39 -12 6 0 94 -24 197 -54 319 -94 433 -127 516 -151 44 -13 105 -31
135 -39 30 -8 102 -29 160 -46 58 -18 121 -36 140 -41 48 -13 43 -12 255 -74
105 -31 199 -59 210 -62 11 -3 58 -17 105 -30 47 -14 99 -29 115 -33 17 -5 86
-25 155 -45 69 -20 132 -39 140 -40 8 -2 44 -13 80 -24 36 -10 189 -55 340
-99 151 -44 363 -106 470 -137 107 -31 202 -58 210 -60 8 -2 85 -25 170 -50
85 -25 250 -73 365 -106 116 -33 230 -66 255 -75 25 -8 196 -57 380 -110 320
-92 405 -116 585 -170 44 -13 150 -44 235 -68 321 -93 581 -169 765 -223 105
-30 195 -56 200 -57 6 -2 30 -9 55 -16 25 -7 50 -15 55 -16 6 -2 64 -19 130
-38 66 -19 176 -50 245 -70 69 -20 145 -42 170 -50 25 -8 103 -31 174 -52
l129 -36 3784 3784 3783 3783 -75 260 c-42 143 -83 283 -90 310 -8 28 -28 97
-45 155 -37 126 -59 200 -64 220 -2 9 -15 54 -29 100 -14 47 -55 186 -91 310
-67 235 -133 461 -193 665 -142 486 -184 632 -188 649 -3 11 -11 40 -19 65 -8
25 -16 55 -19 66 -3 11 -24 83 -47 160 -23 77 -49 169 -60 205 -37 132 -132
457 -151 520 -11 36 -22 72 -24 80 -2 8 -19 69 -38 135 -40 134 -171 589 -180
620 -5 19 -39 134 -218 748 -39 133 -74 256 -79 272 -15 55 -121 419 -141 485
-11 36 -22 72 -24 80 -2 9 -39 139 -83 290 -45 151 -90 307 -101 345 -11 39
-29 102 -41 140 -12 39 -23 78 -25 87 -2 9 -40 142 -85 295 -44 153 -101 348
-126 433 -25 85 -56 192 -70 237 -14 45 -27 90 -29 100 -2 10 -22 81 -45 158
-23 77 -48 165 -56 195 -8 30 -24 82 -35 116 -11 33 -21 69 -24 80 -3 16 -99
346 -211 729 -19 66 -41 143 -49 170 -7 28 -26 91 -40 140 -53 178 -97 330
-100 345 -2 8 -29 101 -60 205 -30 105 -74 253 -96 330 -22 77 -43 146 -48
154 -6 12 -131 55 -221 76 -8 2 -44 13 -80 24 -36 11 -216 63 -400 117 -184
53 -396 114 -470 136 -74 22 -148 44 -165 48 -87 23 -223 63 -240 70 -16 6
-144 44 -220 64 -44 12 -127 36 -285 83 -102 30 -207 61 -235 68 -27 7 -90 26
-140 40 -49 15 -119 35 -155 46 -36 10 -157 45 -270 78 -113 32 -329 95 -480
139 -151 44 -329 96 -395 115 -66 20 -205 60 -310 91 -250 72 -647 187 -760
221 -49 14 -112 33 -140 40 -27 7 -97 27 -155 44 -58 17 -134 40 -170 50 -36
10 -105 31 -155 46 -49 15 -96 29 -105 30 -8 2 -46 13 -85 25 -38 12 -77 23
-85 25 -16 4 -142 40 -465 135 -115 33 -217 63 -225 65 -8 1 -76 21 -150 43
-74 22 -144 42 -155 45 -11 3 -67 20 -125 37 -58 17 -166 49 -240 70 -74 21
-191 55 -260 75 -69 20 -132 38 -140 40 -8 2 -44 13 -80 24 -36 10 -184 54
-330 96 -146 42 -309 90 -364 106 -54 17 -106 32 -115 34 -13 3 -469 135 -931
270 -69 20 -210 61 -315 91 -104 30 -226 66 -270 79 -101 31 -773 225 -777
225 -2 0 -1706 -1703 -3787 -3784z"/>
</g>
</svg>
