<svg xmlns="http://www.w3.org/2000/svg" version="1.1" xmlns:xlink="http://www.w3.org/1999/xlink" xmlns:svgjs="http://svgjs.com/svgjs" width="1440" height="560" preserveAspectRatio="none" viewBox="0 0 1440 560"><g mask="url(&quot;#SvgjsMask1008&quot;)" fill="none"><rect width="1440" height="560" x="0" y="0" fill="url(#SvgjsLinearGradient1009)"></rect><path d="M1440 0L1301.32 0L1440 85.26z" fill="rgba(255, 255, 255, .1)"></path><path d="M1301.32 0L1440 85.26L1440 262.06L775.9699999999999 0z" fill="rgba(255, 255, 255, .075)"></path><path d="M775.97 0L1440 262.06L1440 395.26L651.78 0z" fill="rgba(255, 255, 255, .05)"></path><path d="M651.78 0L1440 395.26L1440 482.28999999999996L262.88 0z" fill="rgba(255, 255, 255, .025)"></path><path d="M0 560L375.92 560L0 326.22z" fill="rgba(0, 0, 0, .1)"></path><path d="M0 326.22L375.92 560L483.49 560L0 228.34000000000003z" fill="rgba(0, 0, 0, .075)"></path><path d="M0 228.34000000000003L483.49 560L870.76 560L0 105.03000000000003z" fill="rgba(0, 0, 0, .05)"></path><path d="M0 105.03000000000003L870.76 560L992.86 560L0 46.79000000000003z" fill="rgba(0, 0, 0, .025)"></path></g><defs><mask id="SvgjsMask1008"><rect width="1440" height="560" fill="#ffffff"></rect></mask><linearGradient x1="15.28%" y1="-39.29%" x2="84.72%" y2="139.29%" gradientUnits="userSpaceOnUse" id="SvgjsLinearGradient1009"><stop stop-color="#0e2a47" offset="0"></stop><stop stop-color="#00459e" offset="1"></stop></linearGradient></defs></svg>