<svg xmlns="http://www.w3.org/2000/svg" version="1.1" xmlns:xlink="http://www.w3.org/1999/xlink" xmlns:svgjs="http://svgjs.com/svgjs" width="2000" height="560" preserveAspectRatio="none" viewBox="0 0 2000 560"><g mask="url(&quot;#SvgjsMask1643&quot;)" fill="none"><g transform="translate(-20, -5.6)" stroke-linecap="round"><path d="M25 38.22 L25 521.78" stroke-width="22.5" stroke="#dd1133"></path><path d="M55 256.34000000000003 L55 303.65" stroke-width="22.5" stroke="#3a7cc3"></path><path d="M85 228.02 L85 250.52" stroke-width="22.5" stroke="#3a7cc3"></path><path d="M85 284.27 L85 331.98" stroke-width="22.5" stroke="#dd1133"></path><path d="M115 118.69 L115 163.69" stroke-width="22.5" stroke="#3a7cc3"></path><path d="M115 197.44 L115 441.31" stroke-width="22.5" stroke="#3a7cc3"></path><path d="M145 112.33 L145 179.82999999999998" stroke-width="22.5" stroke="#dd1133"></path><path d="M145 213.57999999999998 L145 258.58" stroke-width="22.5" stroke="#dd1133"></path><path d="M145 292.33 L145 447.67" stroke-width="22.5" stroke="#3a7cc3"></path><path d="M175 154.88 L175 222.38" stroke-width="22.5" stroke="#dd1133"></path><path d="M175 256.13 L175 301.13" stroke-width="22.5" stroke="#3a7cc3"></path><path d="M175 334.88 L175 405.12" stroke-width="22.5" stroke="#3a7cc3"></path><path d="M205 251.09 L205 308.92" stroke-width="22.5" stroke="#dd1133"></path><path d="M235 90.65 L235 469.36" stroke-width="22.5" stroke="#3a7cc3"></path><path d="M265 11.79 L265 416.79" stroke-width="22.5" stroke="#3a7cc3"></path><path d="M265 450.54 L265 473.04" stroke-width="22.5" stroke="#3a7cc3"></path><path d="M265 506.79 L265 548.21" stroke-width="22.5" stroke="#3a7cc3"></path><path d="M295 114.78 L295 272.28" stroke-width="22.5" stroke="#dd1133"></path><path d="M295 306.03 L295 445.23" stroke-width="22.5" stroke="#dd1133"></path><path d="M325 84.96 L325 309.96" stroke-width="22.5" stroke="#3a7cc3"></path><path d="M325 343.71 L325 388.71" stroke-width="22.5" stroke="#3a7cc3"></path><path d="M325 422.46 L325 475.04" stroke-width="22.5" stroke="#dd1133"></path><path d="M355 17.62 L355 152.62" stroke-width="22.5" stroke="#3a7cc3"></path><path d="M355 186.37 L355 411.37" stroke-width="22.5" stroke="#dd1133"></path><path d="M355 445.12 L355 542.38" stroke-width="22.5" stroke="#3a7cc3"></path><path d="M385 79.87 L385 394.87" stroke-width="22.5" stroke="#dd1133"></path><path d="M385 428.62 L385 480.13" stroke-width="22.5" stroke="#dd1133"></path><path d="M415 212.56 L415 347.44" stroke-width="22.5" stroke="#dd1133"></path><path d="M445 214.5 L445 345.5" stroke-width="22.5" stroke="#dd1133"></path><path d="M475 144.05 L475 415.95" stroke-width="22.5" stroke="#3a7cc3"></path><path d="M505 47.68 L505 272.68" stroke-width="22.5" stroke="#3a7cc3"></path><path d="M505 306.43 L505 512.33" stroke-width="22.5" stroke="#3a7cc3"></path><path d="M535 92.03 L535 317.03" stroke-width="22.5" stroke="#3a7cc3"></path><path d="M535 350.78 L535 467.98" stroke-width="22.5" stroke="#3a7cc3"></path><path d="M565 209.27 L565 231.77" stroke-width="22.5" stroke="#3a7cc3"></path><path d="M565 265.52 L565 288.02" stroke-width="22.5" stroke="#3a7cc3"></path><path d="M565 321.77 L565 350.73" stroke-width="22.5" stroke="#3a7cc3"></path><path d="M595 68.53999999999999 L595 491.46" stroke-width="22.5" stroke="#dd1133"></path><path d="M625 176.87 L625 289.37" stroke-width="22.5" stroke="#3a7cc3"></path><path d="M625 323.12 L625 383.13" stroke-width="22.5" stroke="#3a7cc3"></path><path d="M655 40.65 L655 519.35" stroke-width="22.5" stroke="#3a7cc3"></path><path d="M685 189.69 L685 370.31" stroke-width="22.5" stroke="#dd1133"></path><path d="M715 247.62 L715 312.38" stroke-width="22.5" stroke="#3a7cc3"></path><path d="M745 213.72 L745 258.72" stroke-width="22.5" stroke="#3a7cc3"></path><path d="M745 292.47 L745 346.28" stroke-width="22.5" stroke="#3a7cc3"></path><path d="M775 111.32 L775 246.32" stroke-width="22.5" stroke="#3a7cc3"></path><path d="M775 280.07 L775 370.07" stroke-width="22.5" stroke="#dd1133"></path><path d="M775 403.82 L775 448.68" stroke-width="22.5" stroke="#dd1133"></path><path d="M805 174.84 L805 385.15" stroke-width="22.5" stroke="#3a7cc3"></path><path d="M835 236.24 L835 323.76" stroke-width="22.5" stroke="#3a7cc3"></path><path d="M865 184.59 L865 274.59000000000003" stroke-width="22.5" stroke="#dd1133"></path><path d="M865 308.34000000000003 L865 375.41" stroke-width="22.5" stroke="#dd1133"></path><path d="M895 221.61 L895 266.61" stroke-width="22.5" stroke="#3a7cc3"></path><path d="M895 300.36 L895 338.39" stroke-width="22.5" stroke="#3a7cc3"></path><path d="M925 67.89 L925 112.89" stroke-width="22.5" stroke="#dd1133"></path><path d="M925 146.64 L925 304.14" stroke-width="22.5" stroke="#3a7cc3"></path><path d="M925 337.89 L925 492.11" stroke-width="22.5" stroke="#dd1133"></path><path d="M955 129.31 L955 174.31" stroke-width="22.5" stroke="#dd1133"></path><path d="M955 208.06 L955 320.56" stroke-width="22.5" stroke="#3a7cc3"></path><path d="M955 354.31 L955 430.69" stroke-width="22.5" stroke="#3a7cc3"></path><path d="M985 169.62 L985 192.12" stroke-width="22.5" stroke="#dd1133"></path><path d="M985 225.87 L985 293.37" stroke-width="22.5" stroke="#3a7cc3"></path><path d="M985 327.12 L985 390.38" stroke-width="22.5" stroke="#3a7cc3"></path><path d="M1015 78.77 L1015 236.26999999999998" stroke-width="22.5" stroke="#3a7cc3"></path><path d="M1015 270.02 L1015 337.52" stroke-width="22.5" stroke="#3a7cc3"></path><path d="M1015 371.27 L1015 481.23" stroke-width="22.5" stroke="#dd1133"></path><path d="M1045 121.85 L1045 438.15" stroke-width="22.5" stroke="#dd1133"></path><path d="M1075 95.34 L1075 162.84" stroke-width="22.5" stroke="#3a7cc3"></path><path d="M1075 196.59 L1075 354.09000000000003" stroke-width="22.5" stroke="#3a7cc3"></path><path d="M1075 387.84000000000003 L1075 464.66" stroke-width="22.5" stroke="#dd1133"></path><path d="M1105 66.4 L1105 268.9" stroke-width="22.5" stroke="#3a7cc3"></path><path d="M1105 302.65 L1105 493.61" stroke-width="22.5" stroke="#3a7cc3"></path><path d="M1135 83.09 L1135 285.59000000000003" stroke-width="22.5" stroke="#3a7cc3"></path><path d="M1135 319.34000000000003 L1135 386.84000000000003" stroke-width="22.5" stroke="#3a7cc3"></path><path d="M1135 420.59000000000003 L1135 476.91" stroke-width="22.5" stroke="#3a7cc3"></path><path d="M1165 228.69 L1165 331.31" stroke-width="22.5" stroke="#3a7cc3"></path><path d="M1195 19.2 L1195 540.8" stroke-width="22.5" stroke="#dd1133"></path><path d="M1225 261.32 L1225 298.68" stroke-width="22.5" stroke="#dd1133"></path><path d="M1255 205.77 L1255 228.27" stroke-width="22.5" stroke="#dd1133"></path><path d="M1255 262.02 L1255 284.52" stroke-width="22.5" stroke="#dd1133"></path><path d="M1255 318.27 L1255 354.23" stroke-width="22.5" stroke="#dd1133"></path><path d="M1285 12.49 L1285 547.51" stroke-width="22.5" stroke="#3a7cc3"></path><path d="M1315 60.5 L1315 173" stroke-width="22.5" stroke="#dd1133"></path><path d="M1315 206.75 L1315 499.5" stroke-width="22.5" stroke="#dd1133"></path><path d="M1345 143.29 L1345 188.29" stroke-width="22.5" stroke="#dd1133"></path><path d="M1345 222.04 L1345 334.53999999999996" stroke-width="22.5" stroke="#3a7cc3"></path><path d="M1345 368.28999999999996 L1345 416.71" stroke-width="22.5" stroke="#dd1133"></path><path d="M1375 193.47 L1375 238.47" stroke-width="22.5" stroke="#3a7cc3"></path><path d="M1375 272.22 L1375 294.72" stroke-width="22.5" stroke="#dd1133"></path><path d="M1375 328.47 L1375 366.53" stroke-width="22.5" stroke="#3a7cc3"></path><path d="M1405 199.25 L1405 244.25" stroke-width="22.5" stroke="#3a7cc3"></path><path d="M1405 278 L1405 300.5" stroke-width="22.5" stroke="#dd1133"></path><path d="M1405 334.25 L1405 360.75" stroke-width="22.5" stroke="#3a7cc3"></path><path d="M1435 246.13 L1435 313.87" stroke-width="22.5" stroke="#3a7cc3"></path><path d="M1465 144.78 L1465 415.22" stroke-width="22.5" stroke="#3a7cc3"></path><path d="M1495 47.81 L1495 227.81" stroke-width="22.5" stroke="#dd1133"></path><path d="M1495 261.56 L1495 306.56" stroke-width="22.5" stroke="#dd1133"></path><path d="M1495 340.31 L1495 512.19" stroke-width="22.5" stroke="#3a7cc3"></path><path d="M1525 77.09 L1525 167.09" stroke-width="22.5" stroke="#3a7cc3"></path><path d="M1525 200.84 L1525 482.91" stroke-width="22.5" stroke="#3a7cc3"></path><path d="M1555 249.76 L1555 310.24" stroke-width="22.5" stroke="#3a7cc3"></path><path d="M1585 77.96 L1585 212.95999999999998" stroke-width="22.5" stroke="#3a7cc3"></path><path d="M1585 246.70999999999998 L1585 482.04" stroke-width="22.5" stroke="#dd1133"></path><path d="M1615 122.21 L1615 437.79" stroke-width="22.5" stroke="#dd1133"></path><path d="M1645 230.22 L1645 252.72" stroke-width="22.5" stroke="#3a7cc3"></path><path d="M1645 286.47 L1645 329.78" stroke-width="22.5" stroke="#dd1133"></path><path d="M1675 35.69 L1675 524.32" stroke-width="22.5" stroke="#3a7cc3"></path><path d="M1705 156.77 L1705 224.27" stroke-width="22.5" stroke="#3a7cc3"></path><path d="M1705 258.02 L1705 303.02" stroke-width="22.5" stroke="#dd1133"></path><path d="M1705 336.77 L1705 403.23" stroke-width="22.5" stroke="#3a7cc3"></path><path d="M1735 250.28 L1735 309.72" stroke-width="22.5" stroke="#dd1133"></path><path d="M1765 93.47 L1765 183.47" stroke-width="22.5" stroke="#dd1133"></path><path d="M1765 217.22 L1765 397.22" stroke-width="22.5" stroke="#3a7cc3"></path><path d="M1765 430.97 L1765 466.53" stroke-width="22.5" stroke="#3a7cc3"></path><path d="M1795 155.63 L1795 200.63" stroke-width="22.5" stroke="#dd1133"></path><path d="M1795 234.38 L1795 404.37" stroke-width="22.5" stroke="#dd1133"></path><path d="M1825 212.64 L1825 257.64" stroke-width="22.5" stroke="#dd1133"></path><path d="M1825 291.39 L1825 347.36" stroke-width="22.5" stroke="#dd1133"></path><path d="M1855 36.59 L1855 329.09" stroke-width="22.5" stroke="#dd1133"></path><path d="M1855 362.84 L1855 452.84" stroke-width="22.5" stroke="#dd1133"></path><path d="M1855 486.59 L1855 523.41" stroke-width="22.5" stroke="#dd1133"></path><path d="M1885 130.37 L1885 242.87" stroke-width="22.5" stroke="#dd1133"></path><path d="M1885 276.62 L1885 321.62" stroke-width="22.5" stroke="#dd1133"></path><path d="M1885 355.37 L1885 429.63" stroke-width="22.5" stroke="#dd1133"></path><path d="M1915 77.19 L1915 347.19" stroke-width="22.5" stroke="#dd1133"></path><path d="M1915 380.94 L1915 425.94" stroke-width="22.5" stroke="#3a7cc3"></path><path d="M1915 459.69 L1915 482.81" stroke-width="22.5" stroke="#dd1133"></path><path d="M1945 247.63 L1945 312.37" stroke-width="22.5" stroke="#3a7cc3"></path><path d="M1975 13.629999999999999 L1975 171.13" stroke-width="22.5" stroke="#dd1133"></path><path d="M1975 204.88 L1975 362.38" stroke-width="22.5" stroke="#3a7cc3"></path><path d="M1975 396.13 L1975 546.37" stroke-width="22.5" stroke="#dd1133"></path></g></g><defs><mask id="SvgjsMask1643"><rect width="2000" height="560" fill="#ffffff"></rect></mask></defs></svg>