<svg xmlns="http://www.w3.org/2000/svg" version="1.1" xmlns:xlink="http://www.w3.org/1999/xlink" xmlns:svgjs="http://svgjs.com/svgjs" width="1440" height="560" preserveAspectRatio="none" viewBox="0 0 1440 560"><g mask="url(&quot;#SvgjsMask1088&quot;)" fill="none"><rect width="1440" height="560" x="0" y="0" fill="url(#SvgjsLinearGradient1089)"></rect><path d="M 0,162 C 15.2,138.2 45.6,26.4 76,43 C 106.4,59.6 121.6,238.2 152,245 C 182.4,251.8 197.6,77.2 228,77 C 258.4,76.8 273.6,241.6 304,244 C 334.4,246.4 349.6,82.4 380,89 C 410.4,95.6 425.6,269.4 456,277 C 486.4,284.6 501.6,132.2 532,127 C 562.4,121.8 577.6,248.6 608,251 C 638.4,253.4 653.6,138.6 684,139 C 714.4,139.4 729.6,279.6 760,253 C 790.4,226.4 805.6,8.4 836,6 C 866.4,3.6 881.6,220.8 912,241 C 942.4,261.2 957.6,126.2 988,107 C 1018.4,87.8 1033.6,164.8 1064,145 C 1094.4,125.2 1109.6,-16.2 1140,8 C 1170.4,32.2 1185.6,265.8 1216,266 C 1246.4,266.2 1261.6,15 1292,9 C 1322.4,3 1338.4,224.8 1368,236 C 1397.6,247.2 1425.6,99.2 1440,65L1440 560L0 560z" fill="#184a7e"></path><path d="M 0,347 C 36,382.8 108,515 180,526 C 252,537 288,414.6 360,402 C 432,389.4 468,485 540,463 C 612,441 648,281.6 720,292 C 792,302.4 828,503.2 900,515 C 972,526.8 1008,350.2 1080,351 C 1152,351.8 1188,524.2 1260,519 C 1332,513.8 1404,363.8 1440,325L1440 560L0 560z" fill="#2264ab"></path></g><defs><mask id="SvgjsMask1088"><rect width="1440" height="560" fill="#ffffff"></rect></mask><linearGradient x1="15.28%" y1="-39.29%" x2="84.72%" y2="139.29%" gradientUnits="userSpaceOnUse" id="SvgjsLinearGradient1089"><stop stop-color="#0e2a47" offset="0"></stop><stop stop-color="#00459e" offset="1"></stop></linearGradient></defs></svg>